<?xml version="1.0" encoding="utf-8"?>
<!-- Generator: Adobe Illustrator 22.1.0, SVG Export Plug-In . SVG Version: 6.00 Build 0)  -->
<svg version="1.1" id="Capa_1" xmlns="http://www.w3.org/2000/svg" xmlns:xlink="http://www.w3.org/1999/xlink" x="0px" y="0px"
	 viewBox="0 0 300 200" style="enable-background:new 0 0 300 200;" xml:space="preserve">
<style type="text/css">
	.st0{fill:#CE3328;}
	.st1{fill:#F08547;}
</style>
<g>
	<path class="st0" d="M249.4,38.6c-4-2.1-9.1-3.7-13.5-1.6c-3.1,1.5-5.1,4.6-6.1,7.9c-0.9,3-1.3,6.5,0.1,9.4c0.2,0.5,0.6,1,1.1,1.2
		c0.4,0.2,0.9,0.3,1.3,0.3c1.2,0,2.3-0.7,2.9-1.6c0.8-1.2,0.6-2.7,1.1-4c0.5-1.3,1.4-2.7,3-2.6c2.5,0.1,3,2,2.9,4
		c-0.2,3.6-4.1,6.1-6.9,6.7c-2.3,0.5-4.3,0.3-3.5,2.1c0.7,1.4,1,1.7,1.4,2.2c4.7,6.3,11.2,10.8,13.5,12.4c0.5,0.4,1.2,0.4,1.8,0.1
		c2.5-1.3,9.3-5.1,14.7-10.9c0.4-0.4,0.8-0.7,1.6-2.1c0.9-1.8-1.1-1.8-3.3-2.5c-2.7-0.8-6.4-3.8-6.2-7.4c0.1-2,0.8-3.8,3.3-3.7
		c2.1,0.1,2.6,2,2.8,3.7c0.3,2.1,0.3,4.4,2.8,5c0.6,0.1,1.2,0.2,1.8,0c1-0.3,1.7-1.3,2-2.3c0.7-2,0.8-4.4,0.6-6.5
		c-0.3-3-1.3-6-3.3-8.3c-2.4-2.7-5.8-3.6-9.3-3.3c-1,0.1-2.1,0.3-3.1,0.5c-0.6,0.1-1.1,0.3-1.7,0.5C250.9,38,249.6,38.7,249.4,38.6"
		/>
	<path class="st1" d="M81.7,88.2c0.6-8.7,0.6-17.3,0.7-27.6c0.1-10.1,1-26.1,1.9-36.2c0.3-3.9,1.3-5.3,4.9-5.9
		c3-0.5,3.5,1.1,3.5,2.4C92,30.5,92,38.4,91.3,47.4c-0.9,10.9-1.3,21.9-1.5,32.8c-0.1,8.2-0.4,14.3-0.9,22.5
		c-0.1,1.4-0.3,2.9-0.4,4.3c-0.2,3.1-3.2,5.1-6.1,4.2c-1.5-0.5-2.1-1.6-2.5-2.8c-1.1-3.1-2.2-6.2-3.3-9.4c-1.4-4.2-2-6.4-3.5-10.6
		c-1.7-5-6.2-18.2-6.8-19.9c-0.2,2.3,0,21.8-0.6,30.8c-0.2,3.6-0.9,7.1-1.4,10.6c-0.3,2.1-1.8,3.3-3.8,3.6c-1.8,0.3-3.2-0.6-4.3-2.3
		c-1.7-2.7-4.2-10.4-5-13.5c-2.3-8.5-8.7-30.4-9.9-35.5c-1.6-7.2-3.2-14.4-4.9-21.6c-0.8-3.5,0.6-5.7,3.9-6.5
		c1.6-0.4,2.6,0.1,3.1,1.6c0.2,0.5,0.2,1,0.3,1.5c1.4,6.3,2.8,12.6,4.2,18.9c1,4.2,4.9,18.9,6.3,23.8c1.4,4.9,3.4,13.3,5.5,18.2
		c0.3-2.3,0.5-10.5,0.5-14.7c0-3-0.3-6-0.3-9.1c0-5.5,0.2-11.1,0.2-16.6c0-3.6,0-7.1,0-10.7c0-1.8,0.8-2.9,2.3-3.8
		c3.1-1.9,4.9-1.2,5.8,2.3C71.9,59.4,80.6,85,81.7,88.2"/>
	<path class="st1" d="M125.9,105.1c-4.1,0.3-4-2-4.7-6c-0.8-4.4-1.1-16.3-1.6-20.8c-0.1-1-0.2-2.3-0.4-4c-0.9,0-7.1-0.1-9.8,0.2
		c0,1.6,0.1,2.5,0.2,3.7c0.9,8.7,1.9,17.3,2.7,26c0.2,2.6-1.1,4-3.6,4.1c-1.6,0-2.9-0.5-3.2-2.3c-0.5-2.7-1.1-5.4-1.4-8.2
		c-0.7-6.2-3.5-45.6-5.4-59.1c-0.4-2.6,0.4-3.8,2.2-4.6c2.6-1.1,4.1-0.3,4.5,2.4c0.4,2.9,0.7,5.8,1,8.6c0.3,2.5,0.6,5,0.8,7.5
		c0.3,3.4,1.5,14.2,1.7,15.7c2.5-0.2,9-0.4,9.8-0.3c-0.1-1.9-0.1-2.6-0.2-4c-0.5-7.4-1.1-14.7-1.7-22.1c-0.2-2.3,0.5-3.7,2.3-4.6
		c2.3-1.1,4.5-0.8,4.7,2.5c0.3,4.5,0.8,8.9,1.2,13.4c1,10.6,3.2,31.9,3.4,37C129.6,104.1,129.7,104.7,125.9,105.1"/>
	<path class="st1" d="M202.1,58.8c2,0.1,6,0.4,8.7,0.6c1.9,0.2,3.7,0.3,5.6,0.8c1.6,0.5,1.3,2.3,0.6,4.1c-0.5,1-2.1,0.7-4,0.8
		c-1.4,0-2.6-0.2-4.1-0.2c-1.4,0-3.8-0.2-6.5-0.2c-0.1,3.4,0.4,9.2,1,12.4c0.3,1.8,1.2,8.1,2.2,10.2c1.4,0.3,5.6-0.1,8.9-0.5
		c2.3-0.3,4-1.2,5.4,0c1.1,0.9,1.6,3.6,0.5,4.5c-1.5,1.1-10.5,2.9-19,2.3c-1.3-0.1-2.5-1.5-2.7-3c-2.6-12.4-3.6-24.9-3.7-26
		c-0.6,0-2.2,0-3.3-0.3c-1.9-0.3-1.7-5.4,0-5.7c0.6-0.2,2.8-0.1,3.1-0.1c0.1-5.2,0.1-9.6-0.1-14.6c-0.1-2.3-0.2-4.3,1-6.2
		c1.1-1.5,7.2-1.7,11.4-1.6c2.6,0,7.1,0.2,9.2,1.9c0.9,0.6,1.1,3.5-0.8,4.5c-1.2,0.6-2.5,0.2-3.8,0.1c-2.6-0.2-8-0.8-9.5-0.2
		C201.1,47.5,201.9,52.5,202.1,58.8"/>
	<path class="st1" d="M191.3,89c1.5,2.7,1.5,3.4-0.9,4.6c-4.2,2.1-8.6,3.2-13.3,2.9c-0.8-0.1-1.6-0.2-2.3-0.3
		c-5.6-0.6-9.1-4.2-9.3-9.9c-0.2-5.7-0.2-11.3,0-17c0.2-6.5-0.3-12.9-1.3-19.3c-0.5-3-0.7-6-1-9c-0.2-1.7,0.5-3.1,1.9-4.1
		c2.9-2.1,5.1-1.3,5.6,2.2c1.4,10.8,2.9,21.6,2.3,34.9c-0.3,4.1,0.1,5.9,0.4,10c0.4,5,2.5,6.7,7.5,6.6
		C186.8,90.4,189.6,85.3,191.3,89"/>
	<path class="st1" d="M143.3,41c2.5-0.3,5.2,0.1,7,1.3c9.3,6.2,10,45.6,4.1,52.3c-1.7,2.1-6.2,3.4-8.1,3.3
		c-9.1,0-11.6-13.6-12.5-27.7C132.8,56,132.5,42.1,143.3,41 M144,46.8c-7.6,0.6-4,46.7,3.2,44.6c6.6-1.9,5-32.9,1.1-41.9
		C147.6,47.8,146,46.6,144,46.8"/>
	<path class="st1" d="M272.9,171.8c-3.3-2-14.5-15-4.8-56.7c1.6-9.1,4.4-19,5.6-28.2c0.4-3.6-6.3-4.6-6.6-2.8
		c-2.7,15.4-6.2,30.3-8.8,46.9c-3.9-0.4-10.2,1.2-13.9,3.7c-4.9,3.3-9.2,9.5-10.5,18.3c-0.7,3.5-9.4,20.5-17.8,12
		c-1.7-1.8-2.9-4.5-3.7-7.4c1.8-0.6,13.3-3.8,13.1-18.3c-0.1-3.7-1.4-9.8-5.8-10.9c-1.1-0.3-3.7-0.1-4.7,0.2c-5,1.4-8.3,5.1-10,9.8
		c-1.4,5.1-1.8,9.8,0,17.3c-1.6,5.6-2.6,12.4-7.6,14.5c-6,2.6-8.3-10.4-8.2-16.3c0.2-10.2,2-20.5,3.7-30.5c0.2-1.3,0.5-3,0.7-4
		c15.6-2.5,29.7-3.5,39.3-3.2c3.6,0.2,7.1,0,10.7-0.1c2.3,0,4.1-1.1,5.4-2.9c1.2-1.5,0.5-3.2-1.4-3.6c-0.6-0.1-1.3,0-2,0
		c-3,0.1-6,0.3-9.1,0.4c-5.5,0.1-11.1,0-16.6,0.4c-6.8,0.6-13.2,1-20.5,2.4c-1.6,0.3-5.5,1-5.5,1s0.8-6.1,1.1-8.5
		c0.4-3.1-1-4.2-3.9-3.4c-1.7,0.5-3.2,1.6-3.4,3.4c-0.2,2.1-1.2,8.5-1.4,9.7c-1.7,0.5-17.8,3.3-20.7,4c-2.1,0.4-2.8,2.2-2.2,4.3
		c0.4,1.4,1.6,1.8,3.6,1.3c3.2-0.8,17.8-4,18.7-4.1c-0.1,1.9-4.1,17.6-4.5,40c0.1,3-3.4,14-11.5,6.7c-4-4.7-5.7-9.4-5-15.6
		c0.3-2.6,1.7-5.1,1.8-7.8c0.2-3-0.8-4.2-3.6-5c-1.3-0.4-3.1-0.4-4.7-0.9c-2.6-0.9-4.6-1.5-7.4-3.2c0.6-3.1,1.1-7.1,1.5-9.3
		c1.2-6.7-2.4-9.4-5.9-9.3c-6.2,0.2-8.9,13.5-0.4,21.7c-1.3,14.4,0.2,23.3-4.8,28.5c-1.5,1.6-8.9,4.9-11-7
		c-0.9-4.8,0.2-17.6,2.3-26.6c0.2-1.6,1.2-3.5-2.5-5.3c-2.4-1.5-20.4-6.7-23.2,29.2c-0.4,4.6-14.2,19.9-20.6-1.2
		c13.4-4.1,13.8-14.5,12.5-21.4c-0.7-3.9-4.2-9-9.4-7.9c-12.5,2.5-12.9,15.5-11.2,29.1c0.1,0.7-1.7,14.6-7.8,13.4c-3-0.6-4-7-4.8-10
		c-1.4-5.5-2.9-11-4.3-16.5c-0.8-3.2-1.7-6.4-2.7-9.6c-0.7-2.3-1.6-4-4-5.1c-3.8-1.7-10.1,0.5-12.4,3.9c-4.9,7.1-8.2,27.3-8.6,29.7
		c-0.4-0.9-5.9-20.4-6-21.3c1.2-6,2.9-12.2,4.2-18.2c1.3-6.3,1.8-13.3,1.9-19.8c0.1-5.9-0.5-11.9-2.2-17.6
		c-1.1-3.7-3.1-11.5-7.4-12.7c-2.2-0.6-4.6,0.7-6.1,2.5c-2.3,2.6-3.2,6.1-3.8,9.5c-1.7,10.6-0.2,21.4,1.3,32.1
		c1.1,8,2.3,16,3.4,23.9c0.3,1.8,0.5,3.7,0.3,5.5c-0.3,2.2-1,4.4-1.8,6.5c-2.3,6.5-5.5,13.2-11.2,17.5c-0.5,0.4-1,0.7-1.4,1.2
		c-1.2,1.6,1,2.6,2.4,2.4c1-0.1,1.9-0.6,2.7-1.1c8.3-5.5,11.1-18,11.6-20.1c0.7,2.3,2.1,6.9,2.5,8.4c1.5,6.3,3,9.4,4.9,15.6
		c0.9,2.8,2.1,6.4,5.7,5.9c2.1-0.3,3.1-2.2,3.4-4c1.3-9,3.6-18,5-27c0.8-5.2,3.3-14.1,5.9-15c1.6-0.6,3.3,5.5,4,7.9
		c2,6.7,3.2,13.3,5.1,20c1.3,4.6,2,8.7,5.4,11.9c6.1,5.6,16.2-0.8,17.9-13.2c2.9,8.1,8.4,10.9,12,10.7c7.7-0.4,12.6-4.4,15-9
		c0.2,3.8,2.2,8.4,7.1,8.2c4.9-0.2,9.3-5.1,10.4-9c5.6,15.7,16.7,10,18.8,8.2c5.5-4.6,6.4-11.1,6.2-31c5.1,2.9,7.5,1.6,6.8,4.1
		c-1.2,7.1-0.7,10.3,0.4,15.1c0.9,4.4,2.6,7.4,5.6,10.8c11.2,10.5,18.9,1,19.6-1.4c4.6,9.1,11.7,8.6,13.4,8.2
		c7.2-1.9,10-9.2,10.9-14c3.3,7.5,8.6,9.4,11.8,9.5c8.2,0.2,12.5-4,14.7-8.8c1.2,6.7,5.9,11.1,11.2,11.7c9,1,12.4-4.4,14.7-9.1
		c6.3,14.7,14.8,14.1,16.1,12.5C278.3,175.9,277.3,174.7,272.9,171.8 M24.7,125.6c-0.8-5.1-1.1-8.4-1.5-12c-0.5-3.9-1-7.9-1.3-11.9
		c-0.6-7.1-1.8-15.1-0.4-22.1c0.4-1.9,1-2.7,2.2-1c1.5,2.2,2.1,5.6,2.7,8.1c1,4.3,1.6,8.7,1.8,13.1c0.2,4.4,0.1,8.8-0.5,13.2
		c-0.3,2.3-0.6,4.5-1.1,6.7C26.2,121.6,25.4,124,24.7,125.6 M89,134.4c4.9-1.3,8,13.2-3.7,16.1C84.8,147.9,83.1,136,89,134.4
		 M126,136.9c-0.3,2.2-1,6.3-2.5,16.9c-0.4,3.2-2.4,7.5-4.4,9.1c-5.8,4.7-7.1-5.4-3.7-18c1.4-5.3,4.2-9.4,6.5-11.1
		c1-0.8,2.8-1.5,4.3-0.4C126.8,133.7,126.2,135.9,126,136.9 M146.8,132.5c-4.1-2.3-2.2-11.6-0.3-9.5
		C147.9,124.5,147.8,127,146.8,132.5 M214.1,137.3c6.1-5.1,5.9,4.5,5.4,6.4c-1.1,4.7-7,7.7-7.9,8.2
		C210.5,146.5,210.9,140.2,214.1,137.3 M257.2,156.1c0.2,10.7-9.2,14-13.3,8.1c-3.9-5.6-2.5-25,13.3-27
		C256.9,141.5,255.8,146.7,257.2,156.1"/>
	<path class="st1" d="M285.7,170.5v5.1h-1.3v-5.1h-1.9v-1.2h5.1v1.2H285.7z M294.4,175.5v-4l-1.7,4h-1l-1.7-3.9v3.9h-1.3v-6.2h1.7
		l1.8,4.3l1.8-4.3h1.6v6.2H294.4z"/>
</g>
</svg>
