<?xml version="1.0" encoding="utf-8"?>
<!-- Generator: Adobe Illustrator 22.1.0, SVG Export Plug-In . SVG Version: 6.00 Build 0)  -->
<svg version="1.1" id="Capa_1" xmlns="http://www.w3.org/2000/svg" xmlns:xlink="http://www.w3.org/1999/xlink" x="0px" y="0px"
	 viewBox="0 0 300 200" style="enable-background:new 0 0 300 200;" xml:space="preserve">
<style type="text/css">
	.st0{fill:#E20613;}
</style>
<g>
	<path class="st0" d="M241.1,145.7c0,2.2,1.8,4.1,4.1,4.1c2.2,0,4.1-1.8,4.1-4.1v-28.1c0-2.2-1.8-4.1-4.1-4.1
		c-2.2,0-4.1,1.8-4.1,4.1V145.7z"/>
	<path class="st0" d="M133,141.9c2.1,0,3.7,1.7,3.7,3.7c0,2.1-1.7,3.7-3.7,3.7l-13.8,0c-1.2,0-2.2-1-2.2-2.2l0-29c0-2.2,1.8-4,4-4
		c2.2,0,4,1.8,4,4l0,23.3c0,0.2,0.2,0.4,0.4,0.4L133,141.9z"/>
	<path class="st0" d="M219.5,116.9L219.5,116.9c-0.9-1.6-2.5-2.5-4.7-2.5c-2.7,0-5,2.2-5,5l0,26.7c0,2.1,1.8,3.8,3.8,3.8
		c2.1,0,3.8-1.7,3.8-3.8l0-16.3c0-0.1,0.1-0.2,0.2-0.2c0.1,0,0.2,0,0.2,0.1l9.7,17.2v0c0.9,1.5,2.5,2.5,4.3,2.5c2.7,0,5-2.2,5-5
		l0-27.1c0-2.1-1.7-3.8-3.8-3.8c-2.1,0-3.8,1.7-3.8,3.8l0,16.3c0,0.1-0.1,0.2-0.2,0.2c-0.1,0-0.2,0-0.2-0.1L219.5,116.9z"/>
	<path class="st0" d="M263.1,116.9L263.1,116.9c-0.9-1.6-2.5-2.5-4.7-2.5c-2.7,0-5,2.2-5,5l0,26.7c0,2.1,1.8,3.8,3.8,3.8
		c2.1,0,3.8-1.7,3.8-3.8l0-16.3c0-0.1,0.1-0.2,0.2-0.2c0.1,0,0.2,0,0.2,0.1l9.7,17.2v0c0.9,1.5,2.5,2.5,4.3,2.5c2.7,0,5-2.2,5-5
		l0-27.1c0-2.1-1.7-3.8-3.8-3.8c-2.1,0-3.8,1.7-3.8,3.8l0,16.3c0,0.1-0.1,0.2-0.2,0.2c-0.1,0-0.2,0-0.2-0.1L263.1,116.9z"/>
	<path class="st0" d="M78.4,124.9c0.1,0,0.3-0.1,0.4-0.2l8.7-9.1c0.7-0.7,1.6-1.1,2.7-1.1c2,0,3.7,1.6,3.7,3.7c0,1-0.4,1.8-1,2.5
		l-10.5,12.2l-0.2,12.8c0,2.1-1.7,3.7-3.7,3.7c-2.1,0-3.7-1.7-3.7-3.7l-0.2-12.8L64,120.6c-0.6-0.7-1-1.5-1-2.5c0-2,1.6-3.7,3.7-3.7
		c1,0,2,0.4,2.7,1.1l8.7,9.1C78.1,124.8,78.3,124.9,78.4,124.9"/>
	<path class="st0" d="M66.2,132c0,9.7-7.8,17.5-17.5,17.5s-17.5-7.8-17.5-17.5c0-9.7,7.8-17.5,17.5-17.5S66.2,122.3,66.2,132
		 M48.7,122.6c-5.2,0-9.4,4.2-9.4,9.4c0,5.2,4.2,9.4,9.4,9.4s9.4-4.2,9.4-9.4C58.1,126.8,53.9,122.6,48.7,122.6"/>
	<path class="st0" d="M207.2,143.3c0.5,0.6,0.8,1.4,0.8,2.3c0,2.1-1.7,3.8-3.8,3.8c-1.2,0-2.3-0.6-3-1.5l-4.1-5.4h-9.6l0,3.1
		c0,2.1-1.9,3.8-4,3.8c-2.1,0-3.8-1.7-3.8-3.8v-28.1c0-2.2,1.8-3.3,4-3.3c1.2,0,2.3,0.5,3,1.4L207.2,143.3z M187.5,129v5.8l3.6,0
		c0.2,0,0.3-0.1,0.3-0.3c0-0.1,0-0.1-0.1-0.2L187.5,129z"/>
	<path class="st0" d="M105.1,115.5c0.7-0.9,1.8-1.4,3-1.4c2.2,0,4,1.8,4,4v27.4c0,2.1-1.7,3.8-3.8,3.8c-2.1,0-4-1.7-4-3.8l0-3.1
		h-9.6l-4.1,5.4c-0.7,0.9-1.8,1.5-3,1.5c-2.1,0-3.8-1.7-3.8-3.8c0-0.9,0.3-1.6,0.8-2.3L105.1,115.5z M100.4,134.3
		c0,0.1-0.1,0.1-0.1,0.2c0,0.2,0.1,0.3,0.3,0.3l3.6,0V129L100.4,134.3z"/>
	<path class="st0" d="M147.1,132.1c0,10.9,9.2,17.4,16.4,17.4c5,0,10.2-2.2,13.1-5.6c0.5-0.6,0.9-1.5,0.9-2.4c0-2.1-1.7-3.7-3.7-3.7
		c-0.6,0-1.2,0.1-1.7,0.4l-3,2.1c-1.4,0.9-3.1,1.5-5,1.5c-5.2,0-9.3-4.3-9.3-9.6c0-5.3,4.1-9.6,9.3-9.6c1.8,0,3.5,0.5,5,1.5l2.9,2
		c0.5,0.3,1.1,0.4,1.7,0.4c2.1,0,3.7-1.7,3.7-3.7c0-0.9-0.3-1.7-0.9-2.4c-2.9-3.4-7.1-5.5-12.1-5.5
		C154.9,114.7,147.1,122.5,147.1,132.1"/>
	<path class="st0" d="M7.3,126.4c0-3.4,0.7-6.5,3.2-8.7c2.1-1.9,4.8-3.2,8.5-3c6.7,0.4,11.3,5.3,11.3,11.8c0,3.9-2.1,7.4-5,8.8
		l5.7,9c0.3,0.5,0.4,1,0.4,1.6c0,2-1.8,3.6-3.8,3.6c-0.9,0-1.8-0.4-2.4-1L16,136.1c-0.1,0-0.1,0-0.2,0c-0.2,0-0.4,0.2-0.4,0.4
		l-0.1,9.3c0,2.1-1.7,3.7-3.7,3.7c-2.1,0-3.7-1.7-3.7-3.7L7.3,126.4z M18.5,122.4c-2.3,0-4.1,1.7-4.1,3.8c0,2.1,1.8,3.8,4.1,3.8
		c2.3,0,4.1-1.7,4.1-3.8C22.6,124.1,20.8,122.4,18.5,122.4"/>
	<path class="st0" d="M288.6,113.4c2.3,0,4.1,1.8,4.1,4.1c0,2.3-1.8,4.1-4.1,4.1c-2.3,0-4.1-1.8-4.1-4.1
		C284.5,115.2,286.4,113.4,288.6,113.4 M288.6,120.6c1.7,0,3.1-1.4,3.1-3.1c0-1.7-1.4-3.1-3.1-3.1c-1.7,0-3.1,1.4-3.1,3.1
		C285.5,119.2,286.9,120.6,288.6,120.6 M288,119.3c0,0.3-0.1,0.5-0.5,0.5c-0.4,0-0.5-0.2-0.5-0.5v-3.4c0-0.3,0.1-0.5,0.5-0.5h1.3
		c0.9,0,1.7,0.3,1.7,1.3c0,0.8-0.4,1.2-1.1,1.2l0.8,1.3c0,0.1,0.1,0.2,0.1,0.2c0,0.2-0.2,0.4-0.5,0.4c-0.4,0-0.5-0.3-0.6-0.5
		l-0.7-1.3H288V119.3z M288.8,117.2c0.4,0,0.6-0.1,0.6-0.5c0-0.4-0.2-0.5-0.6-0.5H288v1H288.8z"/>
	<path class="st0" d="M112.8,101.2c-0.9,0-1.9-0.4-2.5-1.2c-1-1.4-0.7-3.3,0.6-4.3c8.1-6.1,20.6-9.7,33.3-9.7h0
		c12.7,0,25.1,3.6,33.2,9.7c1.4,1,1.6,2.9,0.6,4.3c-1,1.4-2.9,1.6-4.3,0.6c-5.5-4.1-16.1-8.5-29.5-8.5h0c-13.5,0-24.1,4.4-29.6,8.5
		C114.1,101,113.5,101.2,112.8,101.2"/>
	<path class="st0" d="M115.6,106.4c-0.6,0-1.2-0.3-1.6-0.8c-0.7-0.9-0.6-2.2,0.3-2.9c7-5.8,18.2-9.2,30-9.2
		c11.7,0,22.8,3.4,29.9,9.2c0.9,0.7,1,2.1,0.3,2.9c-0.7,0.9-2.1,1-2.9,0.3c-6.3-5.2-16.5-8.3-27.2-8.3c-10.6,0-21.1,3.2-27.3,8.3
		C116.6,106.3,116.1,106.4,115.6,106.4"/>
	<path class="st0" d="M99.2,62.4c-1.2,0-2.5,0.3-3.6,1c-1.6,1-2.8,2.5-3.2,4.3c-0.5,1.8-0.2,3.7,0.8,5.3c1.2,2.1,3.5,3.4,6,3.4l0,0
		c1.2,0,2.5-0.3,3.6-1c1.6-1,2.8-2.5,3.2-4.3c0.5-1.8,0.2-3.7-0.8-5.3C104,63.7,101.7,62.4,99.2,62.4"/>
	<path class="st0" d="M144.2,67.8c-3.9,0-7,3.1-7,7c0,3.9,3.2,7,7,7c3.9,0,7-3.1,7-7C151.3,70.9,148.1,67.8,144.2,67.8"/>
	<path class="st0" d="M144.2,50.2c-3.9,0-7,3.1-7,7c0,3.9,3.2,7,7,7c3.9,0,7-3.1,7-7C151.3,53.4,148.1,50.2,144.2,50.2"/>
	<path class="st0" d="M125.6,70.2c-0.6,0-1.2,0.1-1.9,0.2c-3.7,1-5.9,4.9-4.9,8.6c0.8,3,3.6,5.1,6.7,5.2l0.2,0
		c0.6,0,1.2-0.1,1.7-0.2c1.8-0.5,3.3-1.7,4.2-3.3c0.9-1.6,1.2-3.5,0.7-5.3C131.5,72.4,128.7,70.2,125.6,70.2"/>
	<path class="st0" d="M108.2,77.5c-1.2,0-2.5,0.3-3.6,1c-1.6,1-2.8,2.5-3.2,4.3c-0.5,1.8-0.2,3.7,0.8,5.3c1.2,2.1,3.5,3.4,6,3.4l0,0
		c1.3,0,2.5-0.3,3.6-1c1.6-1,2.8-2.5,3.2-4.3c0.5-1.8,0.2-3.7-0.8-5.3C113,78.8,110.7,77.5,108.2,77.5"/>
	<path class="st0" d="M164.8,70.5c-0.6-0.2-1.2-0.2-1.9-0.2c-3.2,0-5.9,2.1-6.8,5.2c-1,3.7,1.2,7.6,4.9,8.6c0.6,0.2,1.2,0.3,1.9,0.3
		c3.1,0,5.9-2.1,6.8-5.2C170.7,75.4,168.5,71.5,164.8,70.5"/>
	<path class="st0" d="M169.4,53.5c-0.6-0.2-1.2-0.2-1.9-0.2c-3.2,0-5.9,2.1-6.8,5.2c-1,3.7,1.2,7.6,4.9,8.6c0.6,0.2,1.2,0.3,1.9,0.3
		c3.1,0,5.9-2.1,6.8-5.2C175.3,58.4,173.1,54.6,169.4,53.5"/>
	<path class="st0" d="M183.8,78.5c-1.1-0.6-2.3-1-3.6-1c-2.5,0-4.8,1.3-6,3.4c-1,1.6-1.2,3.5-0.8,5.3c0.5,1.8,1.6,3.3,3.2,4.3
		c1.1,0.6,2.3,1,3.6,1c2.5,0,4.8-1.3,6-3.4c1-1.6,1.2-3.5,0.8-5.3C186.6,81,185.4,79.5,183.8,78.5"/>
	<path class="st0" d="M196,67.7c-0.5-1.8-1.6-3.3-3.2-4.3c-1.1-0.6-2.3-1-3.6-1c-2.5,0-4.8,1.3-6,3.4c-1,1.6-1.2,3.5-0.8,5.3
		c0.5,1.8,1.6,3.3,3.2,4.3c1.1,0.6,2.3,1,3.6,1c2.5,0,4.8-1.3,6-3.4C196.2,71.4,196.5,69.5,196,67.7"/>
	<path class="st0" d="M120.9,67.3c0.6,0,1.2-0.1,1.9-0.3c3.7-1,5.9-4.9,4.9-8.6c-0.8-3-3.6-5.2-6.8-5.2c-0.6,0-1.2,0.1-1.9,0.2
		c-3.7,1-5.9,4.9-4.9,8.6C115,65.2,117.8,67.3,120.9,67.3L120.9,67.3z"/>
</g>
</svg>
