<?xml version="1.0" encoding="utf-8"?>
<!-- Generator: Adobe Illustrator 22.1.0, SVG Export Plug-In . SVG Version: 6.00 Build 0)  -->
<svg version="1.1" id="Capa_1" xmlns="http://www.w3.org/2000/svg" xmlns:xlink="http://www.w3.org/1999/xlink" x="0px" y="0px"
	 viewBox="0 0 300 200" style="enable-background:new 0 0 300 200;" xml:space="preserve">
<style type="text/css">
	.st0{fill:#808080;}
	.st1{fill:#7686C2;}
	.st2{fill:#182765;}
	.st3{fill:#213A8E;}
	.st4{fill:#5D6A96;}
	.st5{fill:#9B1006;}
	.st6{fill:#E57D5E;}
	.st7{fill:#D80812;}
</style>
<g>
	<path class="st0" d="M248.4,192.7V7.3H51.6v185.4H248.4z M245.1,10.6v178.9H54.9V10.6H245.1z"/>
	<path class="st1" d="M238.6,47.6c-3.6-0.1-7.1-0.2-10.7-0.1c-7.5,0.1-15,0.6-22.5,1.8c-1.1,0.2-2.2,0.3-3.2,0.5
		c-15.8,2.7-31.5,7.9-46.6,15.2c-1.1,0.5-2.2,1.1-3.2,1.6c-3.1,1.6-6.2,3.2-9.3,5.1c-1.1,0.6-2.2,1.2-3.2,1.9
		c-16,9.5-31.5,21.8-46.7,36.6c-1.1,1-2.2,2.1-3.2,3.1c-2.1,2.2-4.1,4.2-6.2,6.4c-0.1,0.1-0.3,0.3-0.4,0.5c-1,1-1.8,1.9-2.8,3
		c-0.1,0-0.3,0.1-0.3,0.3l3.8-3.5c0.1-0.1,0.2-0.3,0.3-0.4c2.7-2.7,4.5-4.5,5.4-5.4c1-1,2.1-2.1,3.2-3.1
		c15.5-14.8,31.1-27,46.9-36.5c1.1-0.8,2.2-1.3,3.2-1.9c3.1-1.8,6.2-3.5,9.3-5.1c1.1-0.5,2.2-1.1,3.2-1.6
		c15.1-7.3,30.8-12.5,46.6-15.2c1.1-0.1,2.2-0.3,3.2-0.5c2.8-0.4,5.5-0.8,8.3-1.1C221.9,48.2,230.2,47.6,238.6,47.6z"/>
	<path class="st2" d="M238.6,47.6c-8.4,0-16.8,0.5-24.9,1.7c-2.8,0.5-5.5,1.1-8.3,1.6c-1.1,0.3-2.2,0.5-3.2,0.9v59.6h-46.6l-3.2,3.2
		h53.1V52.4c8.2-1.7,16.5-3.1,24.8-3.8c3.9-0.4,7.8-0.6,11.8-0.8C240.9,47.7,239.8,47.7,238.6,47.6z"/>
	<path class="st3" d="M202.2,51.8c1.1-0.3,2.2-0.5,3.2-0.9c2.8-0.5,5.5-1.1,8.3-1.6c-2.8,0.3-5.5,0.6-8.3,1.1
		c-1.1,0.2-2.2,0.4-3.2,0.5c-15.8,2.7-31.5,7.9-46.6,15.2c-1.1,0.5-2.2,1.1-3.2,1.6c-3.1,1.6-6.2,3.2-9.3,5.1
		c-1.1,0.6-2.2,1.2-3.2,1.9c-15.8,9.5-31.5,21.7-46.9,36.5h46.9V77.9c1.1-0.6,2.2-1.4,3.2-1.9c3.1-1.8,6.2-3.5,9.3-5.2
		c1.1-0.5,2.2-1.1,3.2-1.6v42.3h46.6V51.8z"/>
	<path class="st2" d="M152.4,72.1l3.2-2.9c-1.1,0.5-2.2,1.1-3.2,1.6c-3.1,1.7-6.2,3.4-9.3,5.2c-1.1,0.5-2.2,1.3-3.2,1.9v33.5H92.9
		c-1.2,1.1-2.3,2.2-3.2,3.1c-0.9,0.9-2.7,2.7-5.4,5.4c-0.1,0.1-0.2,0.3-0.3,0.4c0.1-0.1,0.2-0.3,0.4-0.4c3.2-2.9,5.4-4.6,6.4-5.3
		h52.3V77C146.2,75.3,149.2,73.6,152.4,72.1z"/>
	<path class="st4" d="M155.6,69.1l-3.2,2.9v42.6l3.2-3.2V69.1z"/>
	<path class="st5" d="M209.7,42.3c4.1-0.3,8.3-0.5,12.5-0.6c-6.5-0.3-12.8-0.1-19,0.9c0,0,0,0-0.1,0c-0.3,0.1-0.5,0.1-0.9,0.1
		c-15.5,2.2-31.1,7.1-46.6,14.7c-1.1,0.4-2.2,1-3.2,1.5c-3.1,1.6-6.2,3.2-9.3,5c-1.1,0.6-2.2,1.3-3.2,1.9
		c-15.6,9.3-31.1,21.2-46.7,35.6c-1.1,1.1-2.2,2.1-3.2,3c-1.4,1.4-2.8,2.8-4.3,4.2c-3.5,3.7-7,7.5-10.6,11.3
		c-0.1,0.1-0.2,0.3-0.4,0.5c-0.9,1-1.7,1.9-2.6,3c-1.1,1.1-2.2,2.3-3.2,3.5c-0.1,0.2-0.2,0.3-0.4,0.4c-0.6,0.9-1.3,1.7-1.8,2.6
		c0.8-1,1.5-1.8,2.3-2.7c1.2-1.3,2.4-2.6,3.6-3.8c0.9-1.1,1.9-2.1,2.8-3c0.2-0.2,0.3-0.4,0.4-0.5c0.6-0.5,1.2-1.3,1.8-1.8
		c2.7-2.9,5.4-5.6,8.2-8.4c1.4-1.4,2.8-2.8,4.3-4.2c1.1-1,2.2-1.9,3.2-3c15.6-14.6,31.1-26.5,46.7-35.8c1.1-0.6,2.2-1.3,3.2-1.8
		c3.1-1.8,6.2-3.5,9.3-5.1c1.1-0.5,2.2-1.1,3.2-1.6c15.5-7.6,31.1-12.5,46.6-14.8c1.1-0.1,2.2-0.3,3.2-0.5
		C206.9,42.7,208.3,42.6,209.7,42.3z"/>
	<path class="st6" d="M222.2,41.7c-1.7-0.1-3.5-0.2-5.1-0.4c-4-0.2-7.8-0.2-11.7-0.1c-1.1,0-2.2,0-3.2,0c-15.7,1-31.2,4.9-46.6,11.9
		c-1.1,0.4-2.2,1-3.2,1.5c-3.1,1.4-6.2,3-9.3,4.8c-1.1,0.6-2.2,1.3-3.2,1.8c-15.8,9.4-31.3,21.9-46.7,37.7c-1.1,1.2-2.2,2.3-3.2,3.5
		c-5.2,5.5-10.4,11.3-15.5,17.6c-0.2,0.1-0.3,0.3-0.4,0.5c-0.2,0.1-0.3,0.3-0.5,0.6c-0.6,0.8-1.3,1.5-1.9,2.4
		c-0.9,1.1-1.8,2.3-2.8,3.4c-0.1,0.2-0.2,0.4-0.4,0.5c0.2-0.1,0.3-0.2,0.4-0.4c1.1-1.2,2.2-2.4,3.2-3.5c0.9-1.1,1.7-2.1,2.6-3
		c0.2-0.2,0.3-0.4,0.4-0.5c3.6-3.9,7.1-7.7,10.6-11.3c1.5-1.5,2.8-3.1,4.3-4.6c1.1-1.2,2.2-2.3,3.2-3.4
		c15.3-15.9,30.9-28.5,46.7-37.8c1.1-0.6,2.2-1.4,3.2-1.9c3.1-1.8,6.2-3.5,9.3-4.9c1.1-0.5,2.2-1.1,3.2-1.5
		c15.3-7,30.9-11,46.6-11.8c0.3-0.1,0.5-0.1,0.9-0.1c0.1,0,0.1,0,0.1,0C209.4,41.6,215.7,41.4,222.2,41.7z"/>
	<path class="st7" d="M202.2,42.7L202.2,42.7c-15.7,0.8-31.2,4.8-46.6,11.8c-1.1,0.4-2.2,1-3.2,1.5c-3.1,1.4-6.2,3-9.3,4.9
		c-1.1,0.5-2.2,1.3-3.2,1.9c-15.8,9.3-31.3,21.9-46.7,37.8c-1.1,1.1-2.2,2.2-3.2,3.4c-1.5,1.5-2.8,3.1-4.3,4.6
		c1.5-1.4,2.9-2.8,4.3-4.2c1.1-1,2.2-1.9,3.2-3c15.6-14.4,31.1-26.3,46.7-35.6c1.1-0.6,2.2-1.3,3.2-1.9c3.1-1.7,6.2-3.4,9.3-5
		c1.1-0.5,2.2-1.1,3.2-1.5C171.1,49.8,186.7,44.8,202.2,42.7z"/>
	<path class="st6" d="M202.2,31.7l3.2-3.2h-53.1v20.6l3.2-4.1V31.7H202.2z"/>
	<path class="st5" d="M205.4,28.5l-3.2,3.2v3.6c-15.7,0.2-31.2,3.5-46.6,9.7l-3.2,4.1c1.1-0.5,2.2-1,3.2-1.5
		c15.3-6.5,30.9-9.9,46.6-10.4c1.1,0,2.2,0,3.2,0V28.5z"/>
	<path class="st7" d="M202.2,35.3v-3.6h-46.6V45C171,38.8,186.5,35.5,202.2,35.3z"/>
	<path class="st7" d="M139.8,52.5V31.7H93.1v56.2C108.5,72.9,124.1,61,139.8,52.5z"/>
	<path class="st5" d="M139.8,31.7v20.8c-15.8,8.5-31.3,20.4-46.7,35.5L90,94.9c1-1.1,2.1-2.2,3.1-3.2c15.3-15.2,30.9-27.3,46.7-36.2
		c1.1-0.5,2.2-1.2,3.2-1.7V28.5L139.8,31.7z"/>
	<path class="st6" d="M139.8,31.7l3.2-3.2H89.9V95l0.1-0.1l3.1-6.9V31.7H139.8z"/>
	<path d="M180.9,127.8l-13.8,2.4c2.8,0.2,4.3,1.8,4.4,5.2v30.4c0,3.6-1.5,5.4-4.4,5.4h18.4c-3,0-4.5-1.8-4.5-5.4V127.8z"/>
	<path d="M147.1,130.2c2.9,0.2,4.4,1.8,4.5,5.2v30.4c0,3.6-1.5,5.4-4.5,5.4h18.4c-2.9,0-4.4-1.8-4.4-5.4v-37.9L147.1,130.2z"/>
	<path d="M136.5,136.6c1.4,0,2.5-0.3,3.6-1.2c1-0.9,1.4-1.8,1.4-3c0-1.1-0.4-2.2-1.4-2.9c-1.1-0.8-2.2-1.2-3.6-1.2
		c-1.4,0-2.7,0.4-3.6,1.2c-1.1,0.8-1.5,1.8-1.5,2.9c0,1.2,0.4,2.2,1.5,3C133.8,136.3,135.1,136.6,136.5,136.6z"/>
	<path d="M121.7,134.2c0-3.6,1.5-5.3,4.5-5.4h-18.4c2.9,0.1,4.4,1.8,4.4,5.4v9.7H92.7v-9.7c0-3.6,1.6-5.3,4.5-5.4H78.9
		c3,0.1,4.5,1.8,4.5,5.4v31.6c0,3.6-1.5,5.4-4.5,5.4h18.4c-2.9,0-4.5-1.8-4.5-5.4v-18.2h19.6v18.2c0,3.6-1.5,5.4-4.4,5.4h18.4
		c-3,0-4.5-1.8-4.5-5.4V134.2z"/>
	<path d="M141.1,165.8v-24.3l-13.8,2.5c2.8,0.1,4.3,1.7,4.4,5v16.9c0,3.6-1.5,5.4-4.4,5.4h18.4C142.7,171.2,141.1,169.3,141.1,165.8
		z"/>
	<path d="M188.4,129c-0.8,0.8-1.3,1.6-1.3,2.6c-0.1,0.5,0.2,1.1,0.5,1.6c0.5,0.5,0.8,1,0.9,1.1c0.9,1.6,0.5,3.2-0.9,4.9
		c-0.4,0.5-0.5,0.8-0.3,1c0.2,0.2,0.3,0.3,0.5,0.3c0.2,0,0.4-0.1,0.8-0.3c2.5-1.7,4.4-3.4,5.5-4.8c1.3-1.5,1.8-2.7,1.7-3.9
		c0-1-0.4-1.7-1.2-2.5c-0.9-0.6-1.9-1.1-3.2-1.1C190.2,127.9,189.2,128.4,188.4,129z"/>
	<path d="M215.1,142.5c-1.5-0.5-3.4-0.8-5.5-1.1c-2.1-0.1-4.4-0.2-7-0.2c-2.2,0-4.3,0.2-6.8,0.9c-2.4,0.6-4.3,1.6-5.7,2.9
		c-1.4,1.2-2.2,2.7-2.2,4.3c0,1.7,0.9,3.4,2.7,4.6c1.7,1.4,5.1,2.8,9.9,4.2c4.9,1.4,8,2.7,9.2,3.7c1.1,1,1.7,2.3,1.6,3.5
		c0,1.3-0.9,2.3-2.2,2.9c-1.4,0.6-3.1,1-5.5,1.1c-2.4-0.1-4.3-0.3-6.2-0.5c-1.8-0.3-3.1-0.9-4.1-1.8c-1.1-0.9-2.3-2.5-3.6-4.9
		c-0.9,0-1.4,0.1-1.6,0.2c-0.1,0-0.3,0.2-0.3,0.5c0,0.5,0.3,2.6,1,5.8c0.1,0.4,0.1,0.9,0.1,1.1c0.1,0.4,0.2,0.9,0.6,1.1
		c4,1.1,8.3,1.6,13.2,1.6c2.1,0,4.3-0.3,6.9-1c2.6-0.5,4.4-1.5,5.8-2.9c1.3-1.4,2.3-2.9,2.6-4.4c0.3-1.6,0.2-3-0.6-4.4
		c-0.8-1.4-2.2-2.6-4-3.6c-1.9-1.1-4.9-2.4-8.8-3.8c-4-1.4-6.3-2.5-7-3.1c-0.9-0.6-1.3-1.4-1.3-2.5c0.1-1.1,0.6-1.7,1.8-2.2
		c1.1-0.4,2.6-0.8,4.5-1c2.1-0.2,4.1,0.2,6.2,1.2c2.1,1,3.6,2.5,4.8,4.6h1c0.3,0,0.8,0,1.3,0l-0.2-1.2
		C215.6,145.7,215.4,143.8,215.1,142.5z"/>
	<g>
		<path d="M207.2,133.3v-3.5h2.2c0.5,0,0.8,0.1,1,0.2c0.2,0.2,0.3,0.4,0.3,0.7c0,0.2-0.1,0.4-0.2,0.5c-0.1,0.2-0.2,0.3-0.4,0.3
			c0.2,0.1,0.3,0.1,0.3,0.2c0.1,0.1,0.1,0.3,0.1,0.5c0,0,0,0.1,0,0.1c0,0.4,0.1,0.7,0.2,0.8h-1c0,0,0-0.1-0.1-0.1c0,0,0-0.1,0-0.1
			v-0.2c0-0.3,0-0.5-0.1-0.6c-0.1-0.1-0.2-0.2-0.5-0.2h0h-1v1.3H207.2z M208.1,131.3h1c0.3,0,0.4,0,0.6-0.1c0.1-0.1,0.2-0.2,0.2-0.3
			c0-0.1-0.1-0.2-0.2-0.3c-0.1-0.1-0.3-0.1-0.6-0.1h-1V131.3z"/>
	</g>
	<path d="M209,135.4c-2.5,0-4.5-1.8-4.5-3.9c0-2.2,2-3.9,4.5-3.9c2.5,0,4.5,1.8,4.5,3.9C213.5,133.7,211.5,135.4,209,135.4
		L209,135.4z M209,128.3c-2.1,0-3.8,1.4-3.8,3.2c0,1.8,1.7,3.2,3.8,3.2s3.8-1.4,3.8-3.2C212.8,129.7,211.1,128.3,209,128.3
		L209,128.3z"/>
</g>
</svg>
