<?xml version="1.0" encoding="utf-8"?>
<!-- Generator: Adobe Illustrator 22.1.0, SVG Export Plug-In . SVG Version: 6.00 Build 0)  -->
<svg version="1.1" id="Capa_1" xmlns="http://www.w3.org/2000/svg" xmlns:xlink="http://www.w3.org/1999/xlink" x="0px" y="0px"
	 viewBox="0 0 300 200" style="enable-background:new 0 0 300 200;" xml:space="preserve">
<style type="text/css">
	.st0{fill:#FFFFFF;}
	.st1{fill:#EE3124;}
</style>
<path class="st0" d="M65.6,52h165.8v29.9H65.6V52z"/>
<path class="st1" d="M66.6,53h27.9v27.9H66.6V53z"/>
<path d="M95.4,53h135.1v27.9H95.4V53z"/>
<path class="st0" d="M111.8,58.1c-1-0.4-2.3-0.5-3.9-0.5h-6.9v1h1c0.6,0,1.1,0.1,1.3,0.5c0.2,0.2,0.4,0.6,0.4,2v11.7
	c0,1.3-0.1,1.7-0.2,1.8c-0.2,0.5-0.7,0.6-1.4,0.6h-1v1h8.3v-1h-0.8c-0.6,0-1.1-0.1-1.3-0.5c-0.1-0.1-0.4-0.6-0.4-1.9v-5
	c0.5,0.1,1,0.1,1.3,0.2c0.5,0.1,1,0.1,1.4,0.1c1.8,0,3.2-0.5,4.3-1.4c1.1-1,1.6-2.3,1.6-3.8c0-1.2-0.4-2.2-1.1-3
	C113.6,59.1,112.7,58.5,111.8,58.1z M106.6,59.4c0.6-0.1,1.1-0.2,1.4-0.2c0.7,0,1.3,0.1,1.8,0.5c0.5,0.4,1,0.8,1.2,1.4
	c0.4,0.6,0.5,1.3,0.5,2c0,1.1-0.4,1.9-1,2.6s-1.3,1-2.2,1c-0.2,0-0.6,0-0.8-0.1c-0.2,0-0.6-0.1-1-0.1
	C106.6,66.5,106.6,59.4,106.6,59.4z M132.1,57.5v1h1c0.6,0,1.1,0.1,1.3,0.5c0.1,0.1,0.4,0.6,0.4,1.9v7.4c0,1.9-0.1,3.2-0.5,3.9
	c-0.4,0.7-1,1.4-1.8,1.9c-0.8,0.5-1.9,0.7-3.1,0.7c-0.8,0-1.7-0.1-2.3-0.5s-1.1-0.7-1.3-1.2c-0.4-0.5-0.6-1.2-0.7-2
	c-0.1-0.8-0.2-1.7-0.2-2.4V61c0-1.2,0.1-1.7,0.2-1.9c0.2-0.4,0.7-0.6,1.3-0.6h1v-1h-8.3v1h1c0.6,0,1,0.1,1.3,0.5
	c0.1,0.2,0.4,0.7,0.4,2V68c0,2.3,0.1,3.7,0.5,4.5c0.5,1.2,1.2,2.2,2.3,2.9c1.1,0.7,2.6,1.1,4.7,1.1c1.9,0,3.3-0.4,4.4-1.1
	c1.1-0.7,1.8-1.7,2.3-2.8c0.4-1.1,0.6-2.5,0.6-4.3v-7.3c0-1.3,0.1-1.7,0.2-1.8c0.4-0.5,0.8-0.8,1.4-0.8h1v-1
	C139,57.5,132.1,57.5,132.1,57.5z M159.6,74.6c-0.6-0.4-1.3-1.2-2.2-2.4c0,0-2.8-3.8-3.6-4.9c1.4-0.4,2.4-1,3.1-1.7
	c0.7-0.8,1.2-1.9,1.2-3.1c0-1.1-0.4-2-1.1-2.9c-0.7-0.8-1.4-1.3-2.5-1.7c-1-0.2-2.4-0.5-4.3-0.5h-6.9v1h1c0.6,0,1.1,0.1,1.3,0.5
	c0.1,0.1,0.4,0.6,0.4,1.9v11.7c0,1.3-0.1,1.7-0.2,1.8c-0.2,0.5-0.7,0.6-1.4,0.6h-1v1h8.3v-1h-1c-0.6,0-1.1-0.1-1.3-0.5
	c-0.1-0.1-0.4-0.6-0.4-1.9v-5h1.4l6.2,8.5h5.3v-1h-0.2C160.9,75.2,160.2,75,159.6,74.6z M149.2,59.4c0.7-0.1,1.3-0.2,1.8-0.2
	c1.1,0,1.9,0.4,2.6,1c0.7,0.7,1,1.6,1,2.6c0,1.1-0.4,1.9-1.2,2.6c-0.8,0.7-2,1.1-3.7,1.1h-0.5V59.4z M166.8,57.6v1h1
	c0.4,0,0.7,0.1,1.1,0.2c0.2,0.1,0.4,0.2,0.5,0.5c0.1,0.1,0.1,0.6,0.1,1.7v11.7c0,1.3-0.1,1.8-0.2,1.9c-0.2,0.4-0.7,0.6-1.4,0.6h-1v1
	h8.3v-1h-1c-0.4,0-0.7-0.1-1.1-0.2c-0.2-0.1-0.4-0.2-0.5-0.5c-0.1-0.1-0.1-0.6-0.1-1.7V61.1c0-1.3,0.1-1.8,0.2-1.9
	c0.2-0.4,0.7-0.6,1.4-0.6h1v-1H166.8z M201.7,57.6h-6.8v1h0.8c0.6,0,1.1,0.1,1.4,0.5c0.1,0.1,0.4,0.6,0.4,1.9v9.7l-10.9-13.2h-5.4v1
	h0.2c0.5,0,0.8,0,1.1,0.1c0.5,0.1,0.8,0.4,1.1,0.5s0.6,0.6,1.1,1.1v12.6c0,1.3-0.1,1.7-0.2,1.8c-0.2,0.4-0.7,0.6-1.4,0.6h-0.8v1h6.8
	v-1h-1c-0.6,0-1.1-0.1-1.4-0.5c-0.1-0.1-0.2-0.6-0.2-1.9V62.4l11.7,14.2h0.8V61.1c0-1.3,0.1-1.7,0.2-1.8c0.2-0.4,0.7-0.6,1.4-0.6h1
	v-1.1H201.7z M224.6,75.3c-0.7,0-1.2-0.2-1.6-0.6c-0.4-0.4-0.8-1.1-1.3-2.3l-6.2-15.3h-0.8L208,72.3c-0.6,1.3-1.1,2.2-1.4,2.5
	c-0.1,0.1-0.4,0.2-1.3,0.5H205v1h6.2v-1H211c-1.1-0.1-1.4-0.2-1.6-0.4c-0.2-0.1-0.2-0.4-0.2-0.5c0-0.2,0.1-0.6,0.5-1.4
	c0,0,1-2.2,1.2-2.6h6.7c0.2,0.6,1,2.5,1,2.5c0.4,0.8,0.5,1.4,0.5,1.8c0,0.2-0.1,0.4-0.2,0.6c-0.1,0.1-0.5,0.2-1.3,0.4h-0.2v1h7.8v-1
	L224.6,75.3z M214.2,62.3l2.6,6.5h-5.4L214.2,62.3z M67.5,54h25.8v25.8H67.5V54z"/>
<path class="st1" d="M68.6,70.9h8v8h-8V70.9z M84.5,70.9h8v8h-8V70.9z"/>
<path class="st1" d="M76.5,63h8v8h-8L76.5,63z M68.6,55h8v8h-8V55z M84.5,55h8v8h-8V55z"/>
<path d="M29.1,87.9c-4.1,0-8.1,0.1-12.1,0.1c-3.3,0-5.7-0.1-8.4-0.1v1.4H10c3.3,0,4.9,0.8,4.9,4.1v24.2c0,3.2-1.4,4.1-4.9,4.1H8.8
	v1.4c2.6,0,5-0.1,8.4-0.1c3.2,0,6.3,0.1,9.7,0.1v-1.4h-2.3c-3,0-4.2-0.6-4.2-5.3v-9.9c2.3,0.1,4.5,0.2,6.8,0.2
	c13.6,0,17.6-5,17.6-9.4C44.8,93.3,41.1,87.9,29.1,87.9z M28.1,104.9c-2.4,0-4.9-0.2-7.7-1.2V89.5c1.3-0.1,2.9-0.2,4.7-0.2
	c7.9,0,12.7,3,12.7,8.8C37.8,101.1,35.4,104.9,28.1,104.9z M238.5,117.8l-15.8-25.1h-1.2l-8.1,14.2c-0.6-0.1-1.2-0.1-1.8-0.1
	c-3.2,0.1-7.2,1-9.2,5.4c-0.1,0.2,0,0.4,0.1,0.1c1-1.2,3.1-2.6,4.5-2.9c1.8-0.4,3-0.4,4.8,0.1l-4.4,7.8c-1.9,3.5-3.2,4.4-6.6,4.4
	h-0.7v1.2c1.4-0.1,11.5-0.1,13.6,0l0.6-1.2c0,0-4.5,0.1-4.5-1.3c0-1,0.6-2.2,1.1-3l3.2-6.5l0.2-0.5c0.2,0.1,0.4,0.1,0.6,0.2
	c1.3,0.6,4.2,1.8,6.2,1.8c2.9,0,5.3-0.5,7.1-1.8l0.1,0.2l4.5,7.4c0.2,0.4,0.8,1.4,0.8,2c0,0.8-1.2,1.3-3.1,1.3h-1.6v1.2
	c2.3-0.1,5.3-0.1,8.5-0.1c3.2,0,6,0,8.4,0.1v-1.2h-1.3C242,121.7,240.1,120.2,238.5,117.8z M227.3,110.5c-2,0.5-4.9-0.5-9.1-2.3
	c-0.7-0.4-1.6-0.6-2.3-0.8l4.7-9.2l6.9,11.2l0.5,0.8C227.8,110.4,227.5,110.5,227.3,110.5L227.3,110.5z M275,93.7v1.2h0.7
	c3.3,0,4.3,1,4.4,5.7l0.4,16.9h-0.1l-23.4-23.8c-1.6,0-3.1,0.1-4.9,0.1c-1.9,0-3.7,0-5.4-0.1v1.2h1.7c3.1,0,4.4,0.6,4.4,3.6
	c0,4.8-0.1,12.6-0.4,18.1c-0.2,4.3-0.7,5.1-3.9,5.1h-1v1.2c1.9,0,4.4-0.1,6.8-0.1c2.3,0,4.8,0,6.8,0.1v-1.2h-1.2
	c-2.9,0-3.8-1-4.1-4.3c-0.2-6.3-0.4-12.7-0.4-19h0.1l24.9,25h1.8l1.1-23.9c0.2-3.9,1.9-4.4,3.8-4.4h1v-1.2c-2.3,0-4.4,0.1-6.7,0.1
	C279.4,93.9,276.9,93.9,275,93.7z M199.4,116.9c0,0-2.2,4.1-3.3,4.4c-1.1,0.4-9.7,0.1-9.7,0.1c-5.9-0.2-6.7-1.2-6.7-3.9V98.4
	c0-2.6,1.2-3.3,4.1-3.3h1.4v-1.2c-2.9,0-5.5,0.1-8.1,0.1c-2.8,0-5.7,0-7.9-0.1V95h1.1c2.9,0,4.1,0.7,4.1,3.3v20.1
	c0,2.6-1.2,3.3-4.1,3.3h-1.1v1.2c2.2,0,26.3-0.1,28.2-0.1l2.9-5.9L199.4,116.9L199.4,116.9z M70.8,109c3.1-0.6,8.7-2.3,8.7-7.7
	c0-1.9-1.9-7.5-12.8-7.5c-2.8,0-5.6,0.1-9.8,0.1c-2.8,0-5.7,0-7.9-0.1V95h1.1c2.9,0,4.1,0.7,4.1,3.3v20c0,2.6-1.2,3.3-4.1,3.3H49
	v1.2c2.2,0,5.1-0.1,7.9-0.1s5.3,0,8,0.1v-1.2h-1.8c-2.5,0-3.5-0.5-3.5-4.4v-7.8c4.8,0.1,5.5,0.1,6.9,1.7l7.2,7.9
	c0.4,0.5,0.7,0.8,1.2,1.2c5.7,4.8,11.1,3.2,11.1,3.2v-0.6C81.9,122.9,70.8,109,70.8,109z M63.7,108.1c-1.6,0-3.1,0-4.2-0.2V95.5
	c1.2-0.1,2.4-0.1,3.8-0.1c8.6,0,10.4,5,10.4,6.8C73.9,106.4,69.2,108.1,63.7,108.1z M101.1,93c-8.8,0-16.9,6.3-16.9,15.5
	c0,8.1,7.1,14.8,16.6,14.8c10.8,0,16.9-7.9,16.9-15.2C117.8,99.6,110,93,101.1,93z M101.2,121.5c-7.5,0-12.2-7.2-12.2-13.8
	c0-9.3,5.7-12.8,12-12.8c7.7,0,12.1,7.2,12.1,13.6C113.1,116.1,109.3,121.5,101.2,121.5z M149.8,87.9c-4.1,0-8.1,0.1-12.1,0.1
	c-3.3,0-5.7-0.1-8.4-0.1v1.4h1.3c3.3,0,4.9,0.8,4.9,4.1v24.2c0,3.2-1.4,4.1-4.9,4.1h-1.3v1.4c2.6,0,5-0.1,8.4-0.1
	c3.2,0,6.3,0.1,9.7,0.1v-1.4h-2.2c-3,0-4.2-0.6-4.2-5.3v-9.9c2.3,0.1,4.5,0.2,6.8,0.2c13.6,0,17.6-5,17.6-9.4
	C165.5,93.3,161.8,87.9,149.8,87.9z M148.6,104.9c-2.4,0-4.9-0.2-7.7-1.2V89.5c1.3-0.1,2.9-0.2,4.7-0.2c7.9,0,12.7,3,12.7,8.8
	C158.3,101.1,155.9,104.9,148.6,104.9z M291.7,93.5c-1.2,0-2.3,1-2.3,2.3c0,1.2,1,2.3,2.3,2.3c1.3,0,2.3-1,2.3-2.3
	C293.9,94.6,292.9,93.5,291.7,93.5z M291.7,97.7c-1.1,0-1.9-0.8-1.9-1.9c0-1.1,0.8-1.9,1.9-1.9c1.1,0,1.9,0.8,1.9,1.9
	C293.5,96.8,292.7,97.7,291.7,97.7z"/>
<path d="M291.8,96c0.4,0,0.7-0.4,0.7-0.7c0-0.2-0.2-0.6-0.8-0.6h-1.1v2.4h0.4V96h0.2c0.4,0,0.4,0.1,0.7,0.6l0.2,0.4h0.5l-0.2-0.5
	C292.2,96.2,292.1,96,291.8,96L291.8,96z M291.6,95.6H291v-0.7h0.6c0.2,0,0.5,0.1,0.5,0.4C292.1,95.5,292,95.6,291.6,95.6z
	 M234.9,56.5c-1.2,0-2.3-1-2.3-2.3c0-1.2,1-2.3,2.3-2.3c1.2,0,2.3,1,2.3,2.3C237.2,55.5,236.1,56.5,234.9,56.5z M234.9,52.4
	c-1.1,0-1.9,0.8-1.9,1.9s0.8,1.9,1.9,1.9c1.1,0,1.9-0.8,1.9-1.9C236.7,53.2,235.9,52.4,234.9,52.4z M233.9,53.1h1.1
	c0.6,0,0.8,0.4,0.8,0.6c0,0.4-0.2,0.7-0.7,0.7c0.2,0.1,0.4,0.2,0.6,0.6l0.2,0.5h-0.5l-0.2-0.4c-0.4-0.6-0.5-0.6-0.7-0.6h-0.2v1.1
	h-0.4L233.9,53.1L233.9,53.1z M234.8,54.2c0.4,0,0.5-0.1,0.5-0.4c0-0.2-0.1-0.4-0.5-0.4h-0.6v0.7C234.2,54.2,234.8,54.2,234.8,54.2z
	"/>
</svg>
