<?xml version="1.0" encoding="utf-8"?>
<!-- Generator: Adobe Illustrator 22.1.0, SVG Export Plug-In . SVG Version: 6.00 Build 0)  -->
<svg version="1.1" id="Capa_1" xmlns="http://www.w3.org/2000/svg" xmlns:xlink="http://www.w3.org/1999/xlink" x="0px" y="0px"
	 viewBox="0 0 300 200" style="enable-background:new 0 0 300 200;" xml:space="preserve">
<style type="text/css">
	.st0{fill:#8C827A;}
	.st1{fill:#76BC21;}
</style>
<g>
	<path class="st0" d="M285.1,115.1v-2.6h-0.6V112h0.6v-1.3h0.6v1.3h1.4v0.6h-1.4v2.5c0,0.5,0.3,0.7,0.7,0.7c0.2,0,0.4,0,0.6-0.1v0.6
		c-0.2,0.1-0.5,0.2-0.8,0.2C285.6,116.4,285.1,116,285.1,115.1"/>
	<path class="st0" d="M288.1,112h0.6v0.7c0.3-0.4,0.7-0.8,1.4-0.8c0.7,0,1.2,0.4,1.4,0.9c0.3-0.5,0.8-0.9,1.5-0.9
		c1,0,1.6,0.7,1.6,1.7v2.7H294v-2.5c0-0.8-0.4-1.3-1.1-1.3c-0.7,0-1.2,0.5-1.2,1.3v2.5h-0.6v-2.6c0-0.8-0.4-1.3-1.1-1.3
		c-0.7,0-1.2,0.6-1.2,1.4v2.5h-0.6V112z"/>
	<path class="st0" d="M25.3,99.7c-2.2-1.4-4.7-1.9-7.5-2.5c-3.7-0.8-7-1.8-7-5.4c0-3.4,3.1-5.2,6.1-5.2c3,0,6.3,1.9,6.4,5.1l0,0.4
		h4.1v-9h-4.1v2.3c-1.6-1.9-4-2.9-7.1-2.9c-2.8,0-6.8,1-9,3.8c-1.2,1.6-1.8,3.3-1.8,5.8c0,3,1.5,5.6,4,7.2c2.2,1.3,4.6,1.9,7,2.4
		l0.5,0.1c3.5,0.7,7.2,1.5,7.2,5.7c0,3.7-3.4,5.9-6.7,5.9c-4.3,0-7.6-2.8-8-6.6l0-0.3H5.3v10.1h4.1v-3.1c2,2.6,4.9,4,8.7,4
		c4.3,0,8.3-2.1,9.9-5c0.7-1.4,1.5-3,1.5-5.2C29.5,104,28,101.3,25.3,99.7"/>
	<path class="st1" d="M93.7,82.5c-5.6,0-10.2,2.4-13.2,6.9v-6.4H70.1v4.6h5.5v36.5h-5.5v4.6H86v-4.6h-5.5v-13.5
		c2.8,4.2,7.8,6.8,13.2,6.8c9.5,0,17.2-7.8,17.2-17.5c0-4.1-1.4-7.1-2.7-9.4C105.2,85.5,99.8,82.5,93.7,82.5 M106,100
		c0,7-5.9,12.9-12.8,12.9c-7,0-12.7-5.8-12.7-12.9c0-8.3,6.7-12.5,13-12.8c0.2,0,0.4,0,0.6,0C100.8,87.1,106,92.7,106,100"/>
	<path class="st1" d="M145.7,98.7c0-4.4-0.2-8.1-3.1-11.5c-2.7-3.2-6.1-4.8-10.1-4.8c-4.3,0-8.1,2.1-10.5,5.7V71.3h-10.4v4.6h5.5
		V112h-5.5v4.6h15.8V112H122V99.3c0-3.3,0-6.1,2.5-8.9c1.8-2,4.3-3.1,7.2-3.1c3.3,0,6.3,1.7,7.9,4.5c1.4,2.3,1.4,5.1,1.4,7.8l0,12.4
		h-5.5v4.6h15.9V112h-5.5V98.7z"/>
	<path class="st1" d="M192.2,82.5c-9.5,0-17.2,7.9-17.2,17.7c0,9.5,7.8,17.3,17.5,17.3c6.9,0,13.1-4,15.9-10.3l0.2-0.5h-5.2
		l-0.1,0.2c-2.3,3.9-6.3,6.2-11,6.2c-6.5,0-11.9-4.9-12.5-11.3h29.9v-1.6C209.8,90.2,202.1,82.5,192.2,82.5 M192.1,87
		c6.5,0,11.9,4.4,13,10.6h-25.2C180.8,91.7,186.2,87,192.1,87"/>
	<path class="st1" d="M233.6,99.7c-2.2-1.4-4.7-1.9-7.5-2.5c-3.7-0.8-6.9-1.8-6.9-5.4c0-3.4,3.1-5.2,6.1-5.2c3,0,6.3,1.9,6.4,5.1
		l0,0.4h4.1v-9h-4.1v2.3c-1.6-1.9-4-2.9-7.1-2.9c-2.8,0-6.8,1-9,3.8c-1.2,1.6-1.8,3.3-1.8,5.8c0,3,1.5,5.6,4,7.2
		c2.2,1.3,4.6,1.9,7,2.4l0.5,0.1c3.5,0.7,7.2,1.5,7.2,5.7c0,3.7-3.4,5.9-6.8,5.9c-4.3,0-7.6-2.8-8-6.6l0-0.3h-4.1v10.1h4.1v-3.1
		c2,2.6,4.9,4,8.8,4c4.3,0,8.3-2.1,9.9-5c0.7-1.4,1.5-3,1.5-5.2C237.8,104,236.3,101.3,233.6,99.7"/>
	<path class="st1" d="M274.2,112V98.7c0-4.4-0.2-8.1-3.1-11.5c-2.7-3.2-6.1-4.8-10.1-4.8c-4.3,0-8.1,2.1-10.5,5.7V71.3h-10.4v4.6
		h5.5V112h-5.5v4.6h15.9V112h-5.5V99.3c0-3.3,0-6.1,2.5-8.9c1.8-2,4.3-3.1,7.2-3.1c3.3,0,6.3,1.7,7.9,4.5c1.4,2.3,1.4,5.1,1.4,7.8
		l0,12.4h-5.5v4.6h15.9V112H274.2z"/>
	<path class="st0" d="M49.9,82.9c-4.6,0-8.7,1.8-11.8,4.6c-3.5,3-5.7,7.4-5.7,12.4c0,3.1,0.9,6.1,2.4,8.6c2.9,5.2,8.5,8.7,14.9,8.7
		c9.6,0,17.2-7.8,17.2-17.4C67,90.5,59.2,82.9,49.9,82.9 M58.7,108.9h-6.2v-6.1h-5.3v6.1h-5.8V96.4l8.5-7.8l8.8,7.9V108.9z"/>
	<path class="st1" d="M163.5,99.9c0-8.3,6.7-12.5,12.9-12.8c0.1,0,0.1,0,0.2,0v-4.6c-5.6,0-10.2,2.5-13.1,6.9v-6.4h-10.4v4.6h5.5
		V112h-5.5v4.6H169V112h-5.5C163.5,112,163.5,101.2,163.5,99.9z"/>
</g>
</svg>
