<?xml version="1.0" encoding="utf-8"?>
<!-- Generator: Adobe Illustrator 22.1.0, SVG Export Plug-In . SVG Version: 6.00 Build 0)  -->
<svg version="1.1" id="Capa_1" xmlns="http://www.w3.org/2000/svg" xmlns:xlink="http://www.w3.org/1999/xlink" x="0px" y="0px"
	 viewBox="0 0 300 200" style="enable-background:new 0 0 300 200;" xml:space="preserve">
<style type="text/css">
	.st0{fill:#57575C;}
	.st1{fill:#20A9C3;}
</style>
<g>
	<path class="st0" d="M226.8,138.8c0,5.5,0,11,0,16.5c0,4.6-2.8,7.5-6.8,7.6c-4.1,0-6.9-3-6.9-7.5c0-10.2,0-20.3,0-30.5
		c0-7.9-5.3-13.7-12.3-13.6c-6.9,0.1-12,5.8-12,13.6c0,10.4,0,20.7,0,31.1c0,3.7-2.5,6.4-5.9,6.9c-3.3,0.4-6.6-1.5-7.5-4.7
		c-0.3-1.1-0.3-2.2-0.3-3.4c0-9.9,0-19.7,0-29.6c0-2-0.2-3.9-0.9-5.8c-2-5.4-7.7-8.9-13-8c-5.9,1-10.3,6-10.4,12.2
		c-0.1,10.1,0,20.1,0,30.2c0,0.8,0,1.7,0,2.5c-0.3,4-3.3,6.8-7.2,6.6c-3.7-0.1-6.5-2.9-6.6-6.9c-0.1-10,0-19.9,0-29.9
		c0-2.8,0-5.6,0.7-8.3c4.7-19.4,27.6-26.6,42.5-13.4c1.4,1.3,2.1,1.4,3.6,0.1c8-7.1,17.3-8.9,27.2-4.7c10,4.3,15.4,12.3,16,23.2
		C227.1,128.2,226.8,133.5,226.8,138.8C226.8,138.8,226.8,138.8,226.8,138.8z"/>
	<path class="st1" d="M116.8,153.2c-6,9.5-13.2,17.6-24.1,21.6c-10,3.7-19.8,3-28.9-2.8C48,161.9,47.5,140.1,63,128.8
		c2.5-1.8,3.1-3,1.9-6.1c-4.6-11.8,0.4-24.4,11.2-29.5c10.7-5.1,25.8-0.6,31.8,9.5c0.8,1.3,1.4,2.7,1.8,4.3c0.8,3-0.2,5.5-2.6,7.1
		c-2.4,1.6-5.1,1.5-7.6-0.3c-1.5-1-2.4-2.6-3.4-4c-2.3-3.2-5.3-5.3-9.3-5.5c-6.7-0.3-11.4,4.9-10.7,11.5c0.5,4.7,2.4,8.8,5,12.6
		c1.5,2.2,0.9,2.8-1.3,3.5c-2.9,1-5.6,2.6-8.1,4.5c-6.5,5.1-8.8,12.5-6,18.9c2.9,6.4,10.5,9.9,18.4,8.5c4.7-0.8,8.8-3,12.4-6.1
		c4.6-4,8.1-8.8,11.7-14.2c-1.8,0-3.3,0-4.7,0c-3.2-0.1-5.6-2.3-5.9-5.3c-0.2-3.2,1.9-6.1,5.2-6.2c8.2-0.2,16.4-0.1,24.6-0.1
		c1.3,0,1.5,0.8,1.5,1.8c0,8.1,0.1,16.2-0.1,24.3c0,3.1-2.7,5.4-5.7,5.4c-3.1,0-5.7-2.4-5.9-5.6c-0.1-1.3,0-2.7,0.1-4
		c0-0.3,0.1-0.5,0.1-0.8C117.3,153.1,117.1,153.1,116.8,153.2z"/>
	<path class="st0" d="M47.5,83.2c-7.3,3.9-14.6,4.5-22,1.8C15.1,81.3,8.2,71.7,8.1,60.6C8,51.2,8,41.7,8,32.3c0-4.5,2.9-7.6,6.9-7.5
		c4,0,6.9,3.1,6.9,7.6c0,9,0,18,0,27.1c0,7.8,5.4,13.5,12.7,13.7c7.3,0.1,13-5.8,13-13.7c0-9.1,0-18.3,0-27.4c0-2.9,1.3-5.2,4-6.5
		c2.4-1.2,4.9-0.9,7.1,0.7c2,1.4,2.8,3.5,2.8,5.9c0,19.4,0.1,38.8-0.1,58.2c-0.1,11-4.6,19.9-15.3,24.2c-11.3,4.5-22,2.7-31.5-5
		c-0.4-0.3-0.8-0.7-1.1-1.1c-3.5-3.8-3.8-7.8-0.9-10.7c2.8-2.8,6.6-2.6,10.5,0.8c2.7,2.4,5.9,3.9,9.4,4.5
		c7.8,1.3,14.8-4.4,15.1-12.3C47.6,88.3,47.5,86,47.5,83.2z"/>
	<path class="st0" d="M268.1,136c-5.4,0-10.8,0-16.2,0c-3.4,0-3.5,0.2-2.5,3.6c3.2,10.2,15.7,13.8,24,6.8c1.2-1,2.2-2.2,3.3-3.3
		c2.9-2.8,6.6-3.1,9.2-0.9c2.8,2.4,3.1,6.1,0.6,9.5c-6.8,8.9-16,12.6-27.1,11.2c-10.3-1.3-17.6-7.1-21.5-16.7
		c-4.3-10.4-4.2-21.1,0-31.5c5.1-12.5,17.7-19,31.2-16.4c13,2.5,22.6,13.9,22.8,27c0,1,0,2.1,0,3.1c-0.1,5.1-2.6,7.6-7.7,7.6
		C278.9,136,273.5,136,268.1,136z M263.7,110.9c-6.9,0-13.1,5-14.6,11.4c-0.4,1.8-0.1,2.6,2,2.6c8.4-0.1,16.8-0.1,25.2,0
		c2.3,0,2.3-0.9,1.9-2.6C276.9,115.8,270.6,110.9,263.7,110.9z"/>
	<path class="st0" d="M127.8,55c-0.2,10.2-3.1,19.2-11.4,25.8C102,92.1,74.7,88,69.9,62.1c-1.1-6-0.9-12,0.8-17.9
		c3.8-13.5,15.5-22,29.2-21.3c13.9,0.7,24.5,10.2,27.1,23.9C127.5,49.6,127.8,52.2,127.8,55z M114,56.2c0-4.5-0.4-7.5-1.6-10.5
		c-2.4-6-7.6-9.4-14.1-9.3c-6.4,0.1-11.4,3.5-13.6,9.5c-2.1,5.7-2.1,11.6-0.2,17.4c2.1,6.3,7.4,9.8,14,9.9c6.6,0,11.8-3.6,14.1-9.8
		C113.6,60.7,114,57.8,114,56.2z"/>
	<path class="st0" d="M135.8,46.9c0-4.1,0-8.3,0-12.4c0-6.5,2.3-9.7,7-9.7c4.5,0,6.8,3.2,6.8,9.5c0,8.6-0.1,17.2,0,25.8
		c0.1,6.1,3.9,11,9.4,12.5c5.5,1.5,11.3-0.7,14.4-5.5c1.5-2.3,2-4.9,2-7.7c0-8.8,0-17.6,0-26.4c0-5.1,2.7-8.2,6.9-8.1
		c4.2,0,6.9,3.2,6.9,8.2c0,8.9,0,17.8,0,26.8c-0.1,15.1-11.9,27-26.8,26.9c-14.9-0.1-26.6-11.9-26.6-27.1
		C135.8,55.4,135.8,51.1,135.8,46.9z"/>
</g>
</svg>
