<?xml version="1.0" encoding="utf-8"?>
<!-- Generator: Adobe Illustrator 22.1.0, SVG Export Plug-In . SVG Version: 6.00 Build 0)  -->
<svg version="1.1" id="Capa_1" xmlns="http://www.w3.org/2000/svg" xmlns:xlink="http://www.w3.org/1999/xlink" x="0px" y="0px"
	 viewBox="0 0 300 200" style="enable-background:new 0 0 300 200;" xml:space="preserve">
<style type="text/css">
	.st0{fill:#E2001A;}
	.st1{fill:#41A62A;}
</style>
<g>
	<path class="st0" d="M38.1,134.9h2.3v-14.5h5.4v-2.1h-13v2.1h5.4L38.1,134.9L38.1,134.9z M48.1,134.9h2.1v-5.7
		c0-0.9,0.1-1.6,0.4-2.1c0.3-0.5,0.6-1,1.1-1.2c0.5-0.3,1-0.4,1.6-0.4c0.3,0,0.7,0.1,1,0.2c0.3,0.1,0.6,0.3,0.8,0.5
		c0.2,0.2,0.4,0.5,0.6,0.9c0.1,0.4,0.2,0.8,0.2,1.3v6.6H58v-7.2c0-0.7-0.1-1.4-0.3-1.9c-0.2-0.5-0.5-1-0.9-1.3
		c-0.4-0.3-0.8-0.6-1.3-0.8c-0.5-0.2-1-0.2-1.5-0.2c-0.6,0-1.1,0.1-1.6,0.3c-0.5,0.2-0.9,0.4-1.3,0.7c-0.4,0.3-0.6,0.6-0.8,1h0v-8.4
		h-2.1L48.1,134.9L48.1,134.9z M72.3,130.1v-0.8c0-0.6-0.1-1.1-0.2-1.7c-0.1-0.6-0.3-1.1-0.6-1.6c-0.3-0.5-0.6-0.9-1-1.3
		c-0.4-0.4-0.9-0.7-1.5-0.9c-0.6-0.2-1.3-0.3-2.1-0.3c-0.8,0-1.6,0.2-2.3,0.4c-0.7,0.3-1.3,0.7-1.8,1.2c-0.5,0.5-0.9,1.1-1.2,1.9
		c-0.3,0.7-0.4,1.5-0.4,2.3c0,0.8,0.1,1.6,0.4,2.3c0.3,0.7,0.6,1.3,1.1,1.9c0.5,0.5,1.1,0.9,1.8,1.2c0.7,0.3,1.5,0.4,2.4,0.5
		c1.1,0,2-0.2,2.8-0.6c0.8-0.4,1.5-0.9,2.1-1.7l-1.6-1.2c-0.4,0.5-0.9,0.9-1.4,1.2c-0.5,0.3-1.1,0.4-1.7,0.5c-0.5,0-1-0.1-1.4-0.2
		c-0.5-0.2-0.9-0.4-1.2-0.7s-0.6-0.6-0.8-1c-0.2-0.4-0.3-0.8-0.3-1.3L72.3,130.1L72.3,130.1z M63.4,128.4c0-0.4,0.1-0.8,0.2-1.1
		c0.2-0.4,0.4-0.7,0.7-1c0.3-0.3,0.7-0.6,1.1-0.8c0.4-0.2,0.9-0.3,1.4-0.3c0.7,0,1.3,0.1,1.8,0.4c0.5,0.3,0.8,0.7,1.1,1.2
		c0.2,0.5,0.4,1,0.4,1.7L63.4,128.4L63.4,128.4z M83.1,134.9h2.3v-7.3H89c0.9,0,1.6-0.1,2.2-0.3c0.6-0.2,1.1-0.4,1.5-0.8
		c0.4-0.3,0.7-0.7,1-1.1c0.2-0.4,0.4-0.8,0.5-1.3c0.1-0.4,0.1-0.9,0.1-1.3c0-0.4,0-0.9-0.1-1.3c-0.1-0.4-0.3-0.9-0.5-1.3
		c-0.2-0.4-0.6-0.8-1-1.1c-0.4-0.3-0.9-0.6-1.5-0.8c-0.6-0.2-1.3-0.3-2.2-0.3h-5.9L83.1,134.9L83.1,134.9z M85.4,120.2h3
		c0.5,0,0.9,0,1.3,0.1c0.4,0.1,0.8,0.2,1.1,0.4c0.3,0.2,0.6,0.5,0.8,0.8s0.3,0.8,0.3,1.4c0,0.6-0.1,1-0.3,1.4
		c-0.2,0.4-0.5,0.6-0.8,0.8c-0.3,0.2-0.7,0.3-1.1,0.4c-0.4,0.1-0.9,0.1-1.3,0.1h-3V120.2L85.4,120.2z M98.9,129.3
		c0-0.8,0.2-1.4,0.5-2c0.3-0.6,0.7-1,1.3-1.4c0.5-0.3,1.2-0.5,2-0.5c0.8,0,1.4,0.2,2,0.5c0.5,0.3,1,0.8,1.3,1.4
		c0.3,0.6,0.4,1.3,0.5,2c0,0.8-0.2,1.4-0.5,2c-0.3,0.6-0.7,1-1.3,1.4c-0.5,0.3-1.2,0.5-2,0.5c-0.8,0-1.4-0.2-2-0.5
		c-0.5-0.3-1-0.8-1.3-1.4C99,130.8,98.9,130.1,98.9,129.3L98.9,129.3z M96.6,129.3c0,0.8,0.2,1.6,0.5,2.3c0.3,0.7,0.7,1.3,1.3,1.9
		c0.5,0.5,1.2,1,1.9,1.3c0.7,0.3,1.5,0.5,2.3,0.5c0.8,0,1.6-0.2,2.3-0.5c0.7-0.3,1.3-0.7,1.9-1.3c0.5-0.5,1-1.2,1.3-1.9
		c0.3-0.7,0.5-1.5,0.5-2.3c0-0.8-0.2-1.6-0.5-2.3c-0.3-0.7-0.7-1.3-1.3-1.9c-0.5-0.5-1.2-0.9-1.9-1.3c-0.7-0.3-1.5-0.5-2.3-0.5
		c-0.8,0-1.6,0.2-2.3,0.5c-0.7,0.3-1.3,0.7-1.9,1.3c-0.5,0.5-1,1.2-1.3,1.9C96.8,127.8,96.6,128.5,96.6,129.3L96.6,129.3z
		 M114,134.9h2.3l2.7-8.3h0l2.9,8.3h2.1l3.6-11.2h-2.2l-2.4,8.3h0l-2.8-8.3H118l-2.7,8.3h0l-2.5-8.3h-2.4L114,134.9L114,134.9z
		 M140.7,130.1v-0.8c0-0.6-0.1-1.1-0.2-1.7c-0.1-0.6-0.3-1.1-0.6-1.6c-0.3-0.5-0.6-0.9-1-1.3c-0.4-0.4-0.9-0.7-1.5-0.9
		c-0.6-0.2-1.3-0.3-2.1-0.3c-0.8,0-1.6,0.2-2.3,0.4c-0.7,0.3-1.3,0.7-1.8,1.2c-0.5,0.5-0.9,1.1-1.2,1.9c-0.3,0.7-0.4,1.5-0.4,2.3
		c0,0.8,0.1,1.6,0.4,2.3c0.3,0.7,0.6,1.3,1.1,1.9c0.5,0.5,1.1,0.9,1.8,1.2c0.7,0.3,1.5,0.4,2.4,0.5c1.1,0,2-0.2,2.8-0.6
		c0.8-0.4,1.5-0.9,2.1-1.7l-1.6-1.2c-0.4,0.5-0.9,0.9-1.4,1.2c-0.5,0.3-1.1,0.4-1.7,0.5c-0.5,0-1-0.1-1.4-0.2
		c-0.5-0.2-0.9-0.4-1.2-0.7s-0.6-0.6-0.8-1c-0.2-0.4-0.3-0.8-0.3-1.3L140.7,130.1L140.7,130.1z M131.8,128.4c0-0.4,0.1-0.8,0.2-1.1
		c0.2-0.4,0.4-0.7,0.7-1c0.3-0.3,0.7-0.6,1.1-0.8c0.4-0.2,0.9-0.3,1.4-0.3c0.7,0,1.3,0.1,1.8,0.4c0.5,0.3,0.8,0.7,1.1,1.2
		c0.2,0.5,0.4,1,0.4,1.7L131.8,128.4L131.8,128.4z M143.8,134.9h2.1v-5.6c0-1.2,0.3-2.1,0.8-2.7c0.5-0.6,1.3-0.9,2.4-0.9
		c0.2,0,0.3,0,0.5,0c0.2,0,0.3,0.1,0.5,0.1l0.1-2.3c-0.1,0-0.3-0.1-0.5-0.1c-0.2,0-0.3,0-0.5,0c-0.5,0-0.9,0.1-1.4,0.3
		c-0.4,0.2-0.8,0.4-1.2,0.7c-0.3,0.3-0.6,0.6-0.8,1h0v-1.7h-2.1L143.8,134.9L143.8,134.9L143.8,134.9z M162,129.3
		c0-0.8,0.2-1.4,0.5-2c0.3-0.6,0.7-1,1.3-1.4c0.5-0.3,1.2-0.5,2-0.5c0.8,0,1.4,0.2,2,0.5c0.5,0.3,1,0.8,1.3,1.4
		c0.3,0.6,0.4,1.3,0.5,2c0,0.8-0.2,1.4-0.5,2c-0.3,0.6-0.7,1-1.3,1.4c-0.5,0.3-1.2,0.5-2,0.5c-0.8,0-1.4-0.2-2-0.5
		c-0.5-0.3-1-0.8-1.3-1.4C162.1,130.8,162,130.1,162,129.3L162,129.3z M159.7,129.3c0,0.8,0.2,1.6,0.5,2.3c0.3,0.7,0.7,1.3,1.3,1.9
		c0.5,0.5,1.2,1,1.9,1.3c0.7,0.3,1.5,0.5,2.3,0.5c0.8,0,1.6-0.2,2.3-0.5c0.7-0.3,1.3-0.7,1.9-1.3c0.5-0.5,1-1.2,1.3-1.9
		c0.3-0.7,0.5-1.5,0.5-2.3c0-0.8-0.2-1.6-0.5-2.3c-0.3-0.7-0.7-1.3-1.3-1.9c-0.5-0.5-1.2-0.9-1.9-1.3c-0.7-0.3-1.5-0.5-2.3-0.5
		c-0.8,0-1.6,0.2-2.3,0.5c-0.7,0.3-1.3,0.7-1.9,1.3c-0.5,0.5-1,1.2-1.3,1.9C159.9,127.8,159.7,128.5,159.7,129.3L159.7,129.3z
		 M175.6,134.9h2.1v-9.3h2.5v-1.8h-2.5v-2.6c0-0.5,0-1,0.1-1.3c0.1-0.4,0.3-0.7,0.5-0.9c0.3-0.2,0.7-0.3,1.2-0.3c0.2,0,0.4,0,0.6,0
		c0.2,0,0.4,0.1,0.6,0.2l0.2-1.9c-0.3-0.1-0.6-0.1-0.8-0.1c-0.3,0-0.5,0-0.7,0c-0.9,0-1.7,0.2-2.2,0.5c-0.6,0.3-1,0.8-1.2,1.5
		c-0.3,0.7-0.4,1.5-0.4,2.5v2.5h-2.4v1.8h2.4L175.6,134.9L175.6,134.9z M190.9,134.9h2.3v-13.7h0l9.3,13.7h2.9v-16.7h-2.3v13.7h0
		l-9.2-13.7h-3L190.9,134.9L190.9,134.9z M211,126.4c0.3-0.2,0.5-0.4,0.8-0.6c0.3-0.2,0.6-0.4,1-0.5c0.4-0.1,0.8-0.2,1.4-0.2
		c0.5,0,0.8,0.1,1.2,0.2c0.3,0.1,0.6,0.3,0.8,0.5c0.2,0.2,0.4,0.5,0.5,0.8c0.1,0.3,0.2,0.6,0.2,0.9v0.5h-1.6c-0.9,0-1.6,0.1-2.4,0.2
		c-0.7,0.1-1.4,0.4-2,0.7c-0.6,0.3-1,0.7-1.3,1.2c-0.3,0.5-0.5,1.1-0.5,1.8c0,0.5,0.1,1,0.3,1.4c0.2,0.4,0.5,0.8,0.8,1
		c0.4,0.3,0.8,0.5,1.2,0.6c0.5,0.1,1,0.2,1.5,0.2c0.6,0,1.1-0.1,1.6-0.2c0.5-0.1,0.9-0.3,1.3-0.6c0.4-0.3,0.7-0.7,1.1-1.1h0
		c0,0.6,0,1.1,0.1,1.7h1.9c0-0.3-0.1-0.6-0.1-0.9c0-0.3,0-0.7,0-1.1v-5.7c0-0.5-0.1-1-0.3-1.4c-0.2-0.4-0.5-0.8-0.8-1.2
		c-0.4-0.3-0.9-0.6-1.4-0.8c-0.6-0.2-1.3-0.3-2.1-0.3c-0.5,0-1,0.1-1.6,0.2c-0.5,0.1-1,0.3-1.5,0.5c-0.5,0.2-0.9,0.5-1.3,0.9
		L211,126.4L211,126.4z M216.8,129.5v0.7c0,0.4-0.1,0.8-0.2,1.1c-0.1,0.4-0.3,0.7-0.5,1s-0.6,0.6-1,0.8c-0.4,0.2-0.9,0.3-1.5,0.3
		c-0.5,0-0.9-0.1-1.3-0.2c-0.4-0.1-0.6-0.3-0.8-0.6c-0.2-0.3-0.3-0.6-0.3-1c0-0.4,0.1-0.7,0.3-0.9c0.2-0.3,0.4-0.5,0.7-0.6
		c0.3-0.2,0.6-0.3,1-0.4c0.4-0.1,0.8-0.2,1.2-0.2s0.8-0.1,1.2-0.1L216.8,129.5L216.8,129.5z M228.5,123.8h-3v-3.1h-2.1v3.1h-2.4v1.8
		h2.4v5.8c0,0.4,0,0.7,0,1.1c0,0.4,0.1,0.7,0.2,1c0.1,0.3,0.3,0.6,0.5,0.9c0.2,0.3,0.6,0.5,1,0.6c0.4,0.1,0.9,0.2,1.6,0.2
		c0.1,0,0.3,0,0.6,0c0.2,0,0.5-0.1,0.7-0.1c0.2-0.1,0.4-0.1,0.6-0.2v-1.9c-0.2,0.1-0.5,0.2-0.7,0.3c-0.3,0-0.5,0.1-0.8,0.1
		c-0.4,0-0.7-0.1-0.9-0.2c-0.2-0.1-0.4-0.3-0.5-0.6c-0.1-0.2-0.2-0.5-0.2-0.8c0-0.3,0-0.6,0-0.9v-5.1h3L228.5,123.8L228.5,123.8
		L228.5,123.8z M241.7,123.8h-2.1v5.7c0,0.9-0.1,1.6-0.4,2.1c-0.3,0.5-0.6,1-1.1,1.2c-0.5,0.3-1,0.4-1.6,0.4c-0.3,0-0.7-0.1-1-0.2
		c-0.3-0.1-0.6-0.3-0.8-0.5c-0.2-0.2-0.4-0.5-0.6-0.9c-0.1-0.4-0.2-0.8-0.2-1.3v-6.6h-2.1v7.2c0,0.7,0.1,1.4,0.3,1.9
		c0.2,0.5,0.5,1,0.9,1.3c0.4,0.3,0.8,0.6,1.3,0.8c0.5,0.2,1,0.2,1.5,0.2c0.6,0,1.1-0.1,1.6-0.3c0.5-0.2,0.9-0.4,1.3-0.7
		c0.4-0.3,0.6-0.6,0.8-1h0v1.7h2.1L241.7,123.8L241.7,123.8L241.7,123.8z M245.5,134.9h2.1v-5.6c0-1.2,0.3-2.1,0.8-2.7
		c0.5-0.6,1.3-0.9,2.4-0.9c0.2,0,0.3,0,0.5,0c0.2,0,0.3,0.1,0.5,0.1l0.1-2.3c-0.1,0-0.3-0.1-0.5-0.1c-0.2,0-0.3,0-0.5,0
		c-0.5,0-0.9,0.1-1.4,0.3c-0.4,0.2-0.8,0.4-1.2,0.7c-0.4,0.3-0.6,0.6-0.8,1h0v-1.7h-2.1L245.5,134.9L245.5,134.9L245.5,134.9z
		 M264.9,130.1v-0.8c0-0.6-0.1-1.1-0.2-1.7c-0.1-0.6-0.3-1.1-0.6-1.6c-0.3-0.5-0.6-0.9-1-1.3c-0.4-0.4-0.9-0.7-1.5-0.9
		c-0.6-0.2-1.3-0.3-2.1-0.3c-0.8,0-1.6,0.2-2.3,0.4c-0.7,0.3-1.3,0.7-1.8,1.2c-0.5,0.5-0.9,1.1-1.2,1.9c-0.3,0.7-0.4,1.5-0.4,2.3
		c0,0.8,0.1,1.6,0.4,2.3c0.3,0.7,0.6,1.3,1.1,1.9c0.5,0.5,1.1,0.9,1.8,1.2c0.7,0.3,1.5,0.4,2.4,0.5c1.1,0,2-0.2,2.8-0.6
		c0.8-0.4,1.5-0.9,2.1-1.7l-1.6-1.2c-0.4,0.5-0.9,0.9-1.4,1.2c-0.5,0.3-1.1,0.4-1.7,0.5c-0.5,0-1-0.1-1.4-0.2
		c-0.5-0.2-0.9-0.4-1.2-0.7c-0.4-0.3-0.6-0.6-0.8-1c-0.2-0.4-0.3-0.8-0.3-1.3L264.9,130.1L264.9,130.1z M255.9,128.4
		c0-0.4,0.1-0.8,0.2-1.1c0.2-0.4,0.4-0.7,0.7-1c0.3-0.3,0.7-0.6,1.1-0.8c0.4-0.2,0.9-0.3,1.4-0.3c0.7,0,1.3,0.1,1.8,0.4
		c0.5,0.3,0.8,0.7,1.1,1.2c0.2,0.5,0.4,1,0.4,1.7L255.9,128.4L255.9,128.4z"/>
	<path d="M50.4,95.1l-0.2-0.6l-1.6-0.4c-0.7,1.5-1.6,2.6-2.5,3.6s-1.9,1.7-2.9,2.3c-1,0.6-2,1-2.9,1.2c-1,0.3-1.9,0.5-2.7,0.5
		c-0.8,0.1-1.5,0.1-2,0.1c-2.5,0-4.7-0.5-6.6-1.4c-1.9-0.9-3.5-2.2-4.8-3.9c-1.3-1.7-2.3-3.7-3-6.1c-0.7-2.4-1-5.1-1-8.1
		c0-3,0.3-5.8,1-8.2c0.7-2.4,1.7-4.5,3-6.2c1.3-1.7,2.9-3,4.8-4c1.9-0.9,4.1-1.4,6.6-1.4c1.1,0,2.1,0.2,3.2,0.5
		c1.1,0.3,2.1,0.8,3.1,1.4c1,0.6,1.8,1.4,2.4,2.4c0.7,1,1.1,2.1,1.3,3.5h1.3l0.4-0.3l2.2-9.9l-0.8-0.6c-0.3,0.2-0.7,0.4-1.2,0.5
		s-1.3,0.3-2.1,0.3c-0.5,0-1.2-0.1-2-0.2c-0.8-0.1-1.7-0.2-2.6-0.3c-0.9-0.1-1.8-0.2-2.7-0.3c-0.9-0.1-1.7-0.1-2.4-0.1
		c-2.8,0-5.4,0.3-7.8,0.9c-2.5,0.6-4.7,1.5-6.7,2.7c-2,1.2-3.8,2.7-5.3,4.6c-1.5,1.8-2.6,4-3.4,6.4c-0.8,2.4-1.2,5.2-1.2,8.2
		c0,3,0.4,5.8,1.2,8.2c0.8,2.4,2,4.5,3.4,6.4c1.5,1.8,3.3,3.3,5.3,4.5c2,1.2,4.3,2.1,6.8,2.7c2.5,0.6,5.1,0.9,7.9,0.9
		c0.9,0,2-0.1,3.2-0.2c1.2-0.1,2.3-0.3,3.5-0.5c1.2-0.2,2.3-0.4,3.3-0.7c1-0.3,1.9-0.6,2.6-0.9L50.4,95.1L50.4,95.1z M69.4,95.7
		c-0.3,1.1-0.7,1.9-1.3,2.5c-0.5,0.6-1.1,1.1-1.8,1.4c-0.6,0.3-1.2,0.4-1.8,0.4c-0.7,0-1.3-0.1-1.8-0.4c-0.5-0.3-1-0.7-1.3-1.4
		c-0.3-0.6-0.5-1.4-0.5-2.5c0-1,0.2-1.9,0.7-2.6c0.4-0.7,1-1.3,1.7-1.8c0.7-0.5,1.4-0.9,2.2-1.1c0.8-0.3,1.5-0.5,2.2-0.6
		c0.7-0.1,1.3-0.2,1.8-0.2L69.4,95.7L69.4,95.7z M82.9,101.5l-0.4-0.4c-1.1,0-2-0.2-2.8-0.5c-0.8-0.3-1.4-0.8-1.8-1.6
		c-0.4-0.7-0.6-1.7-0.6-2.8V81.2c0-2.9-0.8-5.1-2.5-6.6c-1.6-1.5-4.1-2.3-7.5-2.3c-1.9,0-3.6,0.2-5.3,0.5c-1.6,0.3-3,0.7-4.2,1.3
		c-1.2,0.6-2.1,1.3-2.8,2.1s-1,1.8-1,2.8c0,0.7,0.2,1.4,0.5,1.9c0.3,0.5,0.7,1,1.2,1.3c0.5,0.3,1,0.6,1.6,0.8
		c0.6,0.2,1.2,0.2,1.7,0.2l0.4-0.4l1.9-7.7l0.4-0.3c1.6,0,3,0.3,4.1,0.8c1.1,0.5,2,1.2,2.5,2.2c0.6,0.9,0.8,2,0.8,3.3v6.7
		c-0.8,0-1.8,0-2.9,0.1c-1.1,0.1-2.3,0.2-3.5,0.4c-1.2,0.2-2.4,0.5-3.6,0.9c-1.2,0.4-2.2,0.9-3.2,1.6c-1,0.7-1.7,1.5-2.3,2.5
		c-0.6,1-0.9,2.2-0.9,3.7c0,1.7,0.3,3.1,1,4.3c0.7,1.2,1.6,2.1,2.8,2.7c1.2,0.6,2.6,0.9,4.3,0.9c1.2,0,2.2-0.2,3.1-0.5
		c0.9-0.3,1.6-0.8,2.2-1.3c0.6-0.5,1.1-1.1,1.5-1.7c0.4-0.6,0.7-1.1,0.8-1.5c0.2-0.5,0.3-0.8,0.3-1h0.2c0,0.7,0.1,1.3,0.3,2
		c0.2,0.7,0.5,1.3,1,2c0.5,0.6,1.1,1.1,1.9,1.5c0.8,0.4,1.8,0.6,3,0.6c0.7,0,1.5-0.1,2.3-0.2c0.8-0.1,1.6-0.4,2.4-0.7
		c0.8-0.3,1.5-0.7,2.2-1.3L82.9,101.5L82.9,101.5z M105.8,99.9l-0.4-0.4c-0.4,0.2-0.9,0.4-1.4,0.5c-0.5,0.1-1.1,0.3-1.6,0.4
		c-0.6,0.1-1.1,0.1-1.6,0.1c-0.7,0-1.3-0.1-2-0.2c-0.7-0.1-1.2-0.4-1.8-0.9c-0.5-0.5-0.9-1.2-1.3-2.1c-0.3-1-0.5-2.3-0.5-3.9V77.1
		h9.2l0.6-0.5l0.7-3.3H95.3v-7.9h-1.4l-12.1,10v1.7h5.5v17.4c0,2.2,0.2,4,0.7,5.4c0.5,1.4,1.1,2.4,2,3.1c0.8,0.7,1.8,1.2,2.9,1.5
		c1.1,0.2,2.2,0.4,3.5,0.4c1.8,0,3.5-0.3,5-0.9c1.5-0.6,2.9-1.4,4.1-2.5L105.8,99.9L105.8,99.9z"/>
	<path d="M110.6,78.1c1.1-0.8,2.1-1.8,2.9-2.9c0.8-1.1,1.4-2.2,1.8-3.4c0.4-1.2,0.6-2.4,0.6-3.7c0-0.6-0.1-1.3-0.2-1.9
		c-0.1-0.7-0.4-1.3-0.7-1.9c-0.3-0.6-0.7-1.1-1.2-1.4c-0.5-0.4-1.1-0.6-1.9-0.6c-0.6,0-1.2,0.2-1.7,0.5c-0.5,0.3-0.9,0.7-1.2,1.2
		c-0.3,0.5-0.5,1.1-0.5,1.7c0,0.7,0.2,1.2,0.5,1.8c0.3,0.5,0.7,0.9,1.2,1.2c0.5,0.3,1.1,0.5,1.7,0.5c0.3,0,0.5,0,0.8-0.1
		c0.3,0,0.5-0.1,0.7-0.2c0.1,1,0,2-0.2,3c-0.3,1-0.7,1.9-1.2,2.8c-0.6,0.9-1.3,1.7-2.1,2.3v0.2L110.6,78.1L110.6,78.1z"/>
	<path d="M116.8,102.7c1.2,0.5,2.4,1,3.5,1.3c1.2,0.3,2.3,0.5,3.3,0.7c1,0.1,2,0.2,2.8,0.2c0.8,0,1.4,0,1.8,0c1.6,0,3.1-0.2,4.5-0.7
		c1.4-0.4,2.7-1.1,3.8-1.9c1.1-0.8,2-1.8,2.6-3c0.6-1.1,0.9-2.4,1-3.8c0-1.5-0.3-2.8-0.8-3.8c-0.5-1.1-1.3-2-2.1-2.7
		c-0.9-0.8-1.9-1.4-2.9-2c-1.1-0.6-2.1-1.1-3.2-1.6c-1.1-0.5-2-1-2.9-1.6c-0.9-0.6-1.6-1.2-2.1-2c-0.5-0.7-0.8-1.6-0.8-2.6
		c0-0.8,0.2-1.5,0.5-2.1c0.3-0.6,0.7-1,1.1-1.3c0.5-0.3,0.9-0.6,1.4-0.7c0.5-0.1,0.9-0.2,1.3-0.2c1.1,0,2.1,0.2,2.8,0.6
		c0.8,0.4,1.5,0.9,2,1.5c0.5,0.7,0.9,1.4,1.1,2.2c0.2,0.8,0.4,1.7,0.4,2.5h1.8l0.6-0.3l0.9-8.8l-0.6-0.3c-0.6,0.2-1.1,0.4-1.6,0.5
		c-0.5,0.1-0.9,0.1-1.3,0.1c-0.5,0-1.1-0.1-1.7-0.1c-0.6-0.1-1.3-0.2-2-0.3c-0.7-0.1-1.6-0.1-2.6-0.1c-1.6,0-3,0.2-4.4,0.5
		c-1.4,0.4-2.6,0.9-3.7,1.6c-1.1,0.7-1.9,1.6-2.5,2.7c-0.6,1.1-0.9,2.3-0.9,3.8c0,1.5,0.3,2.8,0.8,3.9c0.5,1.1,1.2,2,2.1,2.8
		c0.9,0.8,1.8,1.5,2.9,2.1c1,0.6,2.1,1.1,3.1,1.7c1,0.5,2,1,2.9,1.6c0.9,0.5,1.6,1.1,2.1,1.8c0.5,0.7,0.8,1.5,0.8,2.4
		c0,1-0.2,1.8-0.5,2.5c-0.3,0.7-0.7,1.2-1.3,1.5c-0.5,0.4-1.1,0.6-1.6,0.8s-1.1,0.2-1.6,0.2c-1,0-1.9-0.2-2.8-0.6
		c-0.9-0.4-1.7-1-2.5-1.7c-0.7-0.7-1.3-1.6-1.8-2.6c-0.5-1-0.7-2-0.8-3.1l-2.6,0.2l-0.5,0.4L116.8,102.7L116.8,102.7z"/>
	<path d="M189.5,104.1c2.5,0,4.6-0.3,6.5-0.9c1.8-0.6,3.3-1.4,4.5-2.4c1.2-1,2-2.3,2.6-3.7c0.6-1.4,0.9-3,0.9-4.7
		c0-2.2-0.5-4.1-1.4-5.6c-0.9-1.5-2.2-2.8-3.8-3.7c-1.6-0.9-3.5-1.6-5.7-2v-0.4c1.6-0.4,2.9-0.9,4-1.6c1.1-0.7,2-1.5,2.7-2.3
		c0.7-0.9,1.2-1.8,1.5-2.8c0.3-1,0.5-2,0.5-2.9c0-0.8-0.1-1.7-0.3-2.6c-0.2-0.9-0.6-1.9-1.2-2.8c-0.6-0.9-1.4-1.8-2.5-2.6
		c-1.1-0.8-2.5-1.4-4.2-1.9c-1.7-0.5-3.8-0.7-6.2-0.7h-19.6v2.6c1.4,0,2.5,0.2,3.3,0.5c0.8,0.3,1.4,0.8,1.7,1.5
		c0.3,0.7,0.5,1.5,0.5,2.4v29.5c0,1-0.2,1.8-0.5,2.4c-0.3,0.7-0.9,1.2-1.7,1.5c-0.8,0.3-1.9,0.5-3.3,0.5v2.6L189.5,104.1
		L189.5,104.1L189.5,104.1z M185.5,82.6c1.7,0,3.2,0.3,4.5,0.8c1.3,0.5,2.3,1.3,3.2,2.2c0.8,0.9,1.5,1.9,1.9,3
		c0.4,1.1,0.6,2.2,0.6,3.3c0,1.1-0.1,2.2-0.3,3.3c-0.2,1.1-0.6,2.1-1.2,3.1c-0.6,0.9-1.5,1.7-2.6,2.3c-1.1,0.6-2.6,0.9-4.5,0.9
		c-1.4,0-2.5-0.2-3.2-0.5c-0.8-0.3-1.3-0.8-1.7-1.5c-0.3-0.7-0.5-1.5-0.5-2.4V82.6H185.5L185.5,82.6z M181.6,67.5
		c0-0.9,0.1-1.7,0.4-2.4c0.3-0.7,0.8-1.2,1.6-1.5c0.7-0.3,1.8-0.5,3.1-0.5c1.1,0,2.1,0.2,2.8,0.6c0.8,0.4,1.4,0.8,1.9,1.4
		c0.5,0.6,0.9,1.3,1.2,2c0.3,0.7,0.5,1.4,0.6,2.1c0.1,0.7,0.2,1.3,0.1,1.9c0,1.2-0.2,2.3-0.6,3.3c-0.4,1-1,2-1.8,2.8
		c-0.8,0.8-1.9,1.4-3.1,1.9c-1.3,0.5-2.8,0.7-4.5,0.7c-0.3,0-0.6,0-0.8,0c-0.3,0-0.6,0-0.8-0.1L181.6,67.5L181.6,67.5z M215.2,81.3
		c0.3-1.2,0.6-2.2,1.1-3s1-1.5,1.7-2c0.6-0.5,1.3-0.9,1.9-1.1c0.7-0.2,1.3-0.4,1.9-0.4c1.8,0,3.2,0.5,4,1.5c0.9,1,1.3,2.7,1.3,5
		H215.2L215.2,81.3z M233.7,95.8l-0.4-0.1c-0.7,0.6-1.6,1.2-2.6,1.6c-1,0.5-2,0.9-3.2,1.1c-1.2,0.3-2.4,0.4-3.7,0.4
		c-0.8,0-1.6-0.1-2.4-0.3c-0.8-0.2-1.7-0.6-2.5-1.1c-0.8-0.5-1.6-1.2-2.2-2.1c-0.7-0.9-1.2-2-1.6-3.2c-0.4-1.3-0.6-2.8-0.6-4.5
		c0-0.5,0-0.9,0-1.3c0-0.4,0-0.7,0.1-1.1c0-0.4,0.1-0.7,0.1-1.1h19.7c0-1.7-0.3-3.3-0.7-4.7s-1.2-2.7-2.3-3.7
		c-1-1.1-2.3-1.9-3.9-2.5c-1.6-0.6-3.5-0.9-5.8-0.9c-1.2,0-2.6,0.2-3.9,0.6c-1.4,0.4-2.7,1-4.1,1.9c-1.3,0.8-2.5,1.9-3.6,3.2
		c-1.1,1.3-1.9,2.9-2.6,4.7c-0.6,1.8-1,3.9-1,6.3c0,2.2,0.3,4.2,0.8,6c0.5,1.7,1.3,3.2,2.2,4.5c1,1.3,2.1,2.3,3.3,3.1
		c1.3,0.8,2.6,1.4,4.1,1.8c1.5,0.4,3,0.6,4.6,0.6c1.9,0,3.7-0.3,5.3-1c1.6-0.6,3.1-1.6,4.4-2.8c1.3-1.2,2.3-2.7,3.2-4.4L233.7,95.8
		L233.7,95.8z M237.5,102.7c1.2,0.5,2.4,1,3.5,1.3c1.2,0.3,2.3,0.5,3.3,0.7c1,0.1,2,0.2,2.8,0.2c0.8,0,1.4,0,1.8,0
		c1.6,0,3.1-0.2,4.5-0.7c1.4-0.4,2.7-1.1,3.8-1.9c1.1-0.8,2-1.8,2.6-3c0.6-1.1,0.9-2.4,1-3.8c0-1.5-0.3-2.8-0.8-3.8
		c-0.5-1.1-1.3-2-2.1-2.7c-0.9-0.8-1.9-1.4-2.9-2c-1.1-0.6-2.1-1.1-3.2-1.6c-1.1-0.5-2-1-2.9-1.6c-0.9-0.6-1.6-1.2-2.1-2
		c-0.5-0.7-0.8-1.6-0.8-2.6c0-0.8,0.2-1.5,0.5-2.1c0.3-0.6,0.7-1,1.1-1.3c0.5-0.3,0.9-0.6,1.4-0.7c0.5-0.1,0.9-0.2,1.3-0.2
		c1.1,0,2.1,0.2,2.8,0.6c0.8,0.4,1.5,0.9,2,1.5c0.5,0.7,0.9,1.4,1.1,2.2c0.3,0.8,0.4,1.7,0.4,2.5h1.8l0.6-0.3l0.9-8.8l-0.6-0.3
		c-0.6,0.2-1.1,0.4-1.6,0.5c-0.5,0.1-0.9,0.1-1.3,0.1c-0.5,0-1.1-0.1-1.7-0.1c-0.6-0.1-1.3-0.2-2-0.3c-0.7-0.1-1.6-0.1-2.6-0.1
		c-1.6,0-3,0.2-4.4,0.5c-1.4,0.4-2.6,0.9-3.7,1.6c-1.1,0.7-1.9,1.6-2.5,2.7c-0.6,1.1-0.9,2.3-0.9,3.8c0,1.5,0.3,2.8,0.8,3.9
		c0.5,1.1,1.2,2,2.1,2.8c0.9,0.8,1.8,1.5,2.9,2.1c1,0.6,2.1,1.1,3.1,1.7c1,0.5,2,1,2.9,1.6c0.9,0.5,1.6,1.1,2.1,1.8
		c0.5,0.7,0.8,1.5,0.8,2.4c0,1-0.2,1.8-0.5,2.5c-0.3,0.7-0.7,1.2-1.3,1.5c-0.5,0.4-1.1,0.6-1.6,0.8c-0.6,0.2-1.1,0.2-1.6,0.2
		c-1,0-1.9-0.2-2.8-0.6c-0.9-0.4-1.7-1-2.5-1.7c-0.7-0.7-1.3-1.6-1.8-2.6c-0.5-1-0.7-2-0.8-3.1l-2.6,0.2l-0.5,0.4L237.5,102.7
		L237.5,102.7z M286.6,99.9l-0.4-0.4c-0.4,0.2-0.9,0.4-1.4,0.5c-0.5,0.1-1.1,0.3-1.6,0.4c-0.6,0.1-1.1,0.1-1.6,0.1
		c-0.7,0-1.3-0.1-2-0.2c-0.7-0.1-1.2-0.4-1.8-0.9c-0.5-0.5-0.9-1.2-1.3-2.1c-0.3-1-0.5-2.3-0.5-3.9V77.1h9.2l0.6-0.5l0.7-3.3h-10.5
		v-7.9h-1.4l-12.1,10v1.7h5.5v17.4c0,2.2,0.3,4,0.7,5.4c0.5,1.4,1.1,2.4,2,3.1c0.8,0.7,1.8,1.2,2.9,1.5c1.1,0.2,2.2,0.4,3.5,0.4
		c1.8,0,3.5-0.3,5-0.9c1.5-0.6,2.9-1.4,4.1-2.5L286.6,99.9L286.6,99.9z"/>
	<path class="st1" d="M157.5,62.7c-0.1-0.1-0.2-0.1-0.2-0.1c-0.1,0.1-0.1,0.1-0.1,0.2c0.1,0,0.1,0.1,0.2,0.1
		C157.4,62.8,157.4,62.8,157.5,62.7L157.5,62.7z M155.4,61.1c0,0,0.1,0.1,0.1,0.1c0.1,0,0.2,0,0.2,0.1c0.2-0.2,0.4-0.1,0.6,0
		c0.4,0.2,0.8,0.4,1.1,0.8c0.3,0.3,0.6,0.7,0.8,1c0.2,0.3,0.4,0.7,0.6,1.1c0.1,0.2,0.2,0.5,0.3,0.8c0.2,0.6,0.3,1.1,0.4,1.7
		c0.1,0.4,0.1,0.9,0.1,1.3c0,0.9-0.2,1.8-0.8,2.6c-0.3,0.5-0.8,0.7-1.3,0.8c-0.6,0.1-1.1-0.2-1.6-0.5c-0.4-0.3-0.7-0.7-1-1
		c-0.3-0.4-0.5-0.8-0.7-1.2c-0.4-0.6-0.5-1.3-0.7-1.9c-0.1-0.3-0.1-0.7-0.2-1c0-0.3-0.1-0.6-0.1-1c0-0.5,0.1-1,0.2-1.4
		c0.1-0.3,0.2-0.6,0.3-0.9c0.2-0.3,0.4-0.5,0.6-0.8c0,0,0.1,0,0.1-0.1c0,0,0-0.1,0.1-0.1C154.9,61.3,155.1,61.2,155.4,61.1
		L155.4,61.1z"/>
	<path class="st1" d="M142.2,75.8C142.2,75.8,142.3,75.8,142.2,75.8c0-0.3,0-0.5,0-0.7c0-0.7,0.1-1.3,0.6-1.8c0.3-0.3,0.6-0.4,1-0.5
		c0.9-0.1,1.7,0.2,2.4,0.7c0.5,0.4,1,0.8,1.4,1.3c0.6,0.8,1.1,1.7,1.3,2.7c0.2,0.8,0.2,1.6-0.2,2.4c-0.3,0.5-0.7,0.8-1.4,0.8
		c-0.9,0.1-1.6-0.3-2.2-0.7c-0.5-0.3-0.9-0.7-1.3-1.2c-0.2-0.3-0.4-0.6-0.6-0.9c-0.1-0.2-0.2-0.4-0.4-0.6c0,0,0,0,0,0.1
		C142.5,76.8,142.4,76.3,142.2,75.8L142.2,75.8z"/>
	<path class="st1" d="M159.3,86.3c-0.1,0-0.1,0-0.2,0c0,0,0,0.1,0,0.1c0.1,0,0.1,0,0.2,0C159.2,86.4,159.3,86.4,159.3,86.3
		L159.3,86.3z M158,87.5c0.1,0,0.1,0,0.2,0c0,0,0.1-0.1,0-0.1c0,0-0.1-0.1-0.1-0.1C158.1,87.4,158.1,87.5,158,87.5L158,87.5z
		 M160.5,86.3C160.5,86.3,160.5,86.4,160.5,86.3c0.1,0.1,0.2,0,0.3,0c0,0,0-0.1,0-0.1C160.6,86.3,160.5,86.3,160.5,86.3L160.5,86.3z
		 M158.1,88.3C158.1,88.3,158.1,88.3,158.1,88.3c0.1,0,0.1-0.1,0.1-0.1c0-0.1,0-0.1,0-0.2c0,0-0.1,0.1-0.1,0.1
		C158.1,88.2,158.1,88.2,158.1,88.3L158.1,88.3z M155.9,88.2C155.9,88.2,155.9,88.2,155.9,88.2c0,0.1,0.1,0.2,0.2,0.2
		c0,0,0.1,0,0.1-0.1C156.1,88.3,156,88.3,155.9,88.2C155.9,88.2,155.9,88.2,155.9,88.2L155.9,88.2z M152.9,78.5
		C152.9,78.5,152.8,78.5,152.9,78.5c-0.1,0-0.2,0-0.3,0c0,0,0,0.1,0,0.1c0,0,0.1,0.1,0.1,0C152.7,78.6,152.8,78.6,152.9,78.5
		L152.9,78.5z M159.3,85.5c-0.1,0-0.2-0.1-0.2-0.1c0,0,0,0.1,0,0.1c0,0,0.1,0.1,0.2,0.1C159.2,85.6,159.3,85.5,159.3,85.5
		L159.3,85.5z M153.4,78.5c-0.1,0-0.1-0.1-0.2-0.1c0,0-0.1,0.1-0.1,0.1c0,0,0.1,0.1,0.2,0.1C153.3,78.6,153.3,78.5,153.4,78.5
		L153.4,78.5z M152.7,78c-0.1,0-0.1,0-0.2,0c-0.1,0.1-0.1,0.1-0.1,0.2c0,0,0.1,0,0.1,0C152.6,78.1,152.6,78,152.7,78L152.7,78z
		 M159.9,88.5c0-0.1,0.1-0.2,0.1-0.3c0,0-0.1-0.1-0.2-0.1c0,0.1-0.1,0.1-0.1,0.2C159.7,88.4,159.8,88.4,159.9,88.5L159.9,88.5z
		 M162.8,85.4c-0.2-0.2-0.5-0.1-0.5,0.1C162.4,85.5,162.6,85.7,162.8,85.4L162.8,85.4z M162.4,86.4c0.1-0.1,0.1-0.2,0.2-0.2
		c-0.1,0-0.2-0.1-0.2-0.1c-0.1,0-0.1,0.1-0.2,0.2C162.2,86.3,162.3,86.3,162.4,86.4L162.4,86.4z M162.1,85.1
		c-0.1-0.1-0.2-0.1-0.3-0.1c-0.1,0-0.1,0.2-0.1,0.2c0,0.1,0.2,0.1,0.2,0.1C162,85.3,162,85.2,162.1,85.1L162.1,85.1z M160.9,88.2
		c-0.1,0.1-0.1,0.1-0.1,0.2c0,0,0,0.1,0.1,0.1c0,0,0.1-0.1,0.1-0.1C161,88.3,161,88.3,160.9,88.2c0.2,0,0.2,0,0.1-0.1
		c-0.1,0-0.1-0.1-0.2-0.1c0,0,0,0,0,0c0,0,0-0.1-0.1-0.1c-0.1,0-0.2,0-0.2,0c0,0,0,0.1,0,0.1c0.1,0,0.1,0,0.2,0
		C160.7,88.2,160.8,88.2,160.9,88.2L160.9,88.2z M161.2,86.2C161.1,86.3,161.1,86.3,161.2,86.2c0,0.1,0,0.2,0.1,0.2
		c0.1,0.1,0.2,0.1,0.2,0.1c0.1,0,0.2,0.1,0.2,0c0,0,0-0.1,0-0.2c0,0,0-0.1,0-0.1c0-0.1-0.1-0.2-0.2-0.2c-0.1,0-0.1,0.1-0.1,0.2
		c0,0,0,0.1,0,0.1C161.3,86.3,161.2,86.3,161.2,86.2L161.2,86.2z M159.7,88.9c-0.2,0.1-0.3,0.1-0.5,0.1c0,0-0.1,0-0.1,0
		c-0.3,0.1-0.6-0.1-0.9-0.1c0,0,0-0.1-0.1-0.1c-0.2,0.1-0.3,0-0.5-0.1c-0.2-0.1-0.5-0.2-0.6-0.4c0-0.1-0.1-0.1-0.2-0.1
		c-0.1,0.1-0.3,0.3-0.4,0.4c-0.3,0.3-0.7,0.5-1,0.7c-0.3,0.2-0.5,0.3-0.8,0.4c-0.9,0.3-1.7,0.1-2.4-0.4c-0.5-0.3-0.9-0.7-1.2-1.2
		c-0.2-0.4-0.5-0.7-0.7-1.1c-0.3-0.6-0.7-1.2-0.7-1.9c-0.1-0.6,0-1.1,0.2-1.6c0.3-0.7,0.7-1.3,1.1-1.9c0.5-0.7,1-1.4,1.3-2.2
		c0.1-0.1,0.3-0.2,0.3-0.1c0.1,0.1,0.2,0.1,0.3,0c0,0,0-0.2,0-0.2c0-0.1-0.1-0.2-0.2-0.3c0,0,0-0.1,0-0.1c-0.2-0.1-0.1-0.3-0.1-0.4
		c0-0.2,0-0.4,0.3-0.4c0-0.1-0.1-0.1-0.1-0.2c0.1,0,0.2,0,0.3,0c0.1,0,0.1,0.1,0.2,0.1c0.1,0.1,0.1,0.1,0.2,0c0-0.1,0-0.1,0-0.2
		c0.1,0,0.1-0.1,0.2-0.1c-0.1,0-0.1,0-0.1,0c-0.1,0-0.3,0.1-0.4,0.1c-0.1,0-0.2-0.1-0.3-0.1c0.2-0.4,0.4-0.9,0.7-1.2
		c0,0,0.1-0.1,0.1-0.1c0.1-0.1,0.2-0.3,0.4-0.4c0.3-0.2,0.6-0.5,1-0.7c0.4-0.2,0.7-0.4,1.2-0.4c0.3,0,0.5-0.1,0.8-0.1
		c0.4,0,0.7,0,1.1,0.1c0.6,0.1,1.2,0.3,1.7,0.6c0.3,0.2,0.5,0.4,0.8,0.6c0.6,0.4,1.3,0.7,2,0.9c0.8,0.2,1.5,0.5,2.3,0.8
		c0.6,0.2,1.1,0.6,1.5,1c0.4,0.5,0.7,1,0.8,1.7c0.1,0.4,0.2,0.7,0.2,1.1c0.1,0.3,0.1,0.7,0.1,1.1c0,0.4,0,0.7-0.1,1.1
		c-0.1,0.7-0.4,1.3-1,1.8c-0.1,0.1-0.2,0.2-0.3,0.3c0,0,0,0-0.1,0c0-0.1,0-0.1,0.1-0.2c0,0,0-0.1,0-0.1c0,0-0.1,0-0.1,0
		c0,0,0,0-0.1,0c-0.1,0.1-0.2,0.2-0.3,0.4c-0.1,0.2-0.3,0.2-0.5,0.3c-0.1-0.1-0.1-0.2-0.2-0.2c-0.1,0-0.2,0.1-0.2,0.2
		c-0.1,0.2-0.1,0.2-0.3,0c-0.1,0.3-0.4,0.1-0.6,0.2c0-0.1,0-0.3,0-0.4c0-0.1-0.1-0.1-0.1-0.2c-0.1-0.1-0.1-0.1-0.1-0.2
		c0-0.1-0.2-0.2-0.3-0.2c-0.1,0-0.2,0.2-0.2,0.3c0.1,0.2,0,0.4-0.1,0.6c-0.1,0-0.1,0-0.2,0c-0.1,0.3-0.2,0.5-0.2,0.8
		c0,0-0.1,0.1-0.1,0.1c0,0-0.1-0.1-0.1-0.1c0-0.1-0.1-0.1-0.2-0.2c0,0.1,0,0.2,0,0.2c0,0,0,0.1-0.1,0.1c0,0-0.1,0-0.1,0
		c0,0-0.1-0.1-0.1-0.1c0,0.1,0,0.1,0,0.2c0,0,0.1,0,0.2,0.1c0.1,0,0.1,0,0.2,0c0,0,0,0,0,0c-0.1,0.1-0.2,0.2-0.4,0.4
		c-0.1,0.1-0.2,0.2-0.3,0.2c-0.1,0-0.1,0-0.2,0c-0.1,0-0.2,0-0.3,0.1c-0.1,0.1-0.1,0.3,0.1,0.3c0.2,0.1,0.2,0.2,0.2,0.4
		c0,0.1,0,0.1-0.1,0.2c-0.2,0.1-0.4,0.2-0.5,0.3c-0.2,0.1-0.4,0.1-0.6,0.2C159.9,88.9,159.8,88.9,159.7,88.9
		C159.7,88.9,159.7,88.9,159.7,88.9L159.7,88.9z"/>
	<path class="st1" d="M149.9,72.6C149.9,72.6,149.8,72.6,149.9,72.6c-0.1,0.1-0.1,0.2-0.1,0.3c0,0,0.1,0.1,0.1,0.1
		c0,0,0.1-0.1,0.1-0.1C149.9,72.8,149.9,72.7,149.9,72.6L149.9,72.6z M146.3,69.3c-0.1-0.5-0.2-1-0.3-1.5c-0.1-0.9-0.1-1.8,0.4-2.6
		c0.3-0.5,0.7-0.8,1.2-1c0.4-0.1,0.9,0,1.3,0.1c0.6,0.2,1.2,0.6,1.7,1.1c0.3,0.3,0.5,0.6,0.8,0.9c0.3,0.4,0.5,0.8,0.7,1.2
		c0.4,0.6,0.6,1.3,0.7,2c0.1,0.3,0.1,0.7,0.2,1.1c0.1,0.5,0,1-0.1,1.4c-0.1,0.6-0.3,1.2-0.8,1.5c-0.3,0.2-0.6,0.4-0.9,0.4
		c-1,0-1.7-0.4-2.4-1c-0.3-0.3-0.6-0.6-0.9-0.9c-0.3-0.3-0.5-0.7-0.7-1C146.8,70.5,146.6,69.9,146.3,69.3L146.3,69.3z"/>
	<path class="st1" d="M165.8,71.1c-0.1,0-0.1-0.1-0.1,0c0,0-0.1,0.1-0.1,0.2c0,0,0.1,0,0.1,0.1C165.7,71.2,165.8,71.2,165.8,71.1
		L165.8,71.1z M165.1,66.9c-0.1-0.2-0.3-0.2-0.4,0c0,0,0,0.1,0,0.1c0,0,0.1,0,0.1,0C164.8,67,165,66.9,165.1,66.9L165.1,66.9z
		 M166,69.8c0.1-0.1,0.2-0.3,0.3-0.4c0,0,0,0,0-0.1c-0.1,0-0.2,0-0.2,0C166,69.5,165.9,69.6,166,69.8L166,69.8z M165.8,66.7
		C165.8,66.7,165.7,66.8,165.8,66.7c-0.1,0-0.2,0-0.3,0c0,0,0,0.1,0,0.1c0.1,0,0.1,0.1,0.2,0.1c0.1,0,0.2,0,0.3,0.1
		c0.1,0.1,0.1,0.2,0,0.3c-0.1,0.2,0,0.2,0.1,0.2c0,0,0.1,0,0.1,0.1c0.1,0.2,0.2,0.5,0.3,0.7c0.1,0.5,0.2,1,0.2,1.5
		c0,0.1,0,0.2-0.1,0.3c0,0,0,0.1,0,0.1c0.2,0.2,0.1,0.4,0.1,0.6c0,0.5-0.1,1.1-0.3,1.6c-0.2,0.5-0.4,0.9-0.7,1.3
		c-0.4,0.5-0.9,0.8-1.5,0.8c-0.5,0-0.9-0.1-1.2-0.4c-0.4-0.3-0.6-0.7-0.9-1.1c-0.3-0.5-0.4-1-0.6-1.6c-0.1-0.4-0.1-0.8-0.1-1.2
		c0-0.5,0-0.9,0.1-1.4c0.1-0.9,0.4-1.7,1-2.4c0.4-0.4,0.8-0.7,1.4-0.8c0.5-0.1,1,0.1,1.4,0.5c0.2,0.1,0.3,0.3,0.5,0.5
		C165.8,66.7,165.8,66.7,165.8,66.7L165.8,66.7z"/>
</g>
</svg>
