<?xml version="1.0" encoding="utf-8"?>
<!-- Generator: Adobe Illustrator 22.1.0, SVG Export Plug-In . SVG Version: 6.00 Build 0)  -->
<svg version="1.1" id="Capa_1" xmlns="http://www.w3.org/2000/svg" xmlns:xlink="http://www.w3.org/1999/xlink" x="0px" y="0px"
	 viewBox="0 0 300 200" style="enable-background:new 0 0 300 200;" xml:space="preserve">
<style type="text/css">
	.st0{fill:#332687;}
	.st1{fill:#FEFEFE;}
</style>
<g>
	<polygon id="Fill-1" class="st0" points="5,145.9 295,145.9 295,54.1 5,54.1 	"/>
	<g id="Group-6" transform="translate(4.000000, 7.000000)">
		<path id="Fill-2" class="st1" d="M271.7,80.7c0.2,0,0.5,0,0.5-0.2s-0.2-0.2-0.5-0.2h-0.5v0.7h0.5V80.7z M271.2,82.1h-0.5v-2.4h1
			c0.7,0,1,0.2,1,0.7c0,0.5-0.2,0.7-0.7,0.7l0.7,1.2h-0.7l-0.5-1.2h-0.2C271.2,81.2,271.2,82.1,271.2,82.1z M271.7,79
			c-1,0-1.7,0.7-1.7,1.9c0,1.2,0.7,1.9,1.7,1.9l0,0c1,0,1.7-0.7,1.7-1.9C273.4,79.7,272.6,79,271.7,79L271.7,79z M271.7,83.3
			c-1.2,0-2.4-1-2.4-2.4c0-1.4,1.2-2.4,2.4-2.4c1.2,0,2.4,1,2.4,2.4C274.1,82.4,272.9,83.3,271.7,83.3L271.7,83.3z"/>
		<path id="Fill-4" class="st1" d="M260.3,77.8l-7.7,13.3l-7.7-13.3h-9.2l12.8,20.8v13.5h8V98.3l12.8-20.8h-8.9V77.8z M226.5,97.3
			l-3.9-9.7l-3.9,9.7H226.5z M226.5,77.8l14.3,34.3h-8.2l-2.9-7.5h-13.5l-2.9,7.5h-8l0.2-0.5l14.3-34.1L226.5,77.8L226.5,77.8z
			 M200.1,77.8l-6.5,22l-7-22.2h-6.8l-7,22.2L166.3,78v-0.2h-8.5l11.4,34.3v0.2h6.8l7.2-21.3l7.2,21.3h6.8l11.4-34.6H200.1z
			 M145,112.1h8V77.8h-8V112.1z M123.5,77.8h-8v34.3h24.2v-7.5h-16.4V77.8H123.5z M92.1,98.3h15.5v-7.2H92.1v-6h17.6v-7.2H84.1v34.3
			h25.6v-7.2H91.9v-6.5H92.1z M53.4,112.1h8V99h15.7v-7.5H61.4V85h17.6v-7.2H53.4V112.1z M45.2,77.5c0,0.5,0,0.5,0.2,1
			c0.2,0.2,1.5,1.9,1.5,2.7c0.5,3.4-0.5,6.5-1,9.7c-0.2,1.2-1.2,2.7-1.7,3.9c-0.7,1.9-0.7,4.1-1.2,6c-0.2,2.4-0.7,4.3-0.2,6.8
			c0,0.7,1,1.2,1.2,1.7c0.5,0.2,0.5,1.5,0.2,1.9c-0.2,0.7-1.2,0.7-1.9,0.7c-0.7,0-2.2,0-2.2-1c-0.5-1.7-1-1.7-1.5,0
			c-0.2,1-1.2,1-1.7,1s-1.7,0-1.9-0.7c0-0.5-0.2-1.2-0.7-1.2c-1.2,0-1,2.2-6.3,1.9c-1,0-2.2,0-2.9-0.5c-0.7,0-1.4,0-2.2,0h-1.2
			c-1,0-1.9,0-2.9,0c-0.2,0-0.5,0-0.7,0c-1.2,0-5.6-0.2-7-2.9c-0.5-0.7-0.7-1.7-0.7-2.4c0.5-3.9,4.1-4.1,5.1-4.1h0.2
			c1.4,0,2.4,0.5,3.1,1c0,0,0.2,0.2,0.2,0.5s-0.2,0.2-0.2,0.2c-2.7,0-4.4,0.5-5.1,1.2c-0.5,0.5-0.7,1.2-0.7,1.7
			c0.2,1.5,2.7,1.9,5.1,1.9l0,0c1,0,1.7,0,2.7,0c0.5,0,1,0,1.5,0h1.4c-0.5-1.7-1-3.9-1-5.6c0.2-2.7,0.5-2.4,0.2-4.3s0-7.2,1-10.9
			c0.5-1.5,2.2-5.1,3.9-6.5c1.7-1.4,3.4-1.7,3.9-1.9c1.9-0.2,2.4-1.4,2.4-1.7c0-1-1-1.9-1.2-2.7c-0.5-1.2-0.2-1.9-0.2-2.9
			c0,0,0.5-1.9,0-2.9c-0.2-0.7-0.7-3.4-0.2-4.6c0.5-1.2,2.2,0.2,3.9,2.4c0.2,0.2,0.7,0.2,1,0c2.2-0.7,3.9-0.5,4.8,0.2
			c0.7,0.2,0.7,0.2,1,0c1.7-2.2,3.1-3.6,3.6-2.7c0.7,1,0.2,3.9,0,4.8s0.2,2.9,0.2,2.9c0,1.2,0.5,1.7-0.2,3.4
			C46.7,75.8,45.2,77.1,45.2,77.5L45.2,77.5z"/>
	</g>
</g>
</svg>
