<?xml version="1.0" encoding="utf-8"?>
<!-- Generator: Adobe Illustrator 22.1.0, SVG Export Plug-In . SVG Version: 6.00 Build 0)  -->
<svg version="1.1" id="Capa_1" xmlns="http://www.w3.org/2000/svg" xmlns:xlink="http://www.w3.org/1999/xlink" x="0px" y="0px"
	 viewBox="0 0 300 200" style="enable-background:new 0 0 300 200;" xml:space="preserve">
<style type="text/css">
	.st0{fill:#9C9B9B;}
	.st1{fill:#870F54;}
</style>
<g>
	<path class="st0" d="M70,118.6c-9.2,0-16.6-7.3-16.6-16.4c0-9,7.5-16.4,16.6-16.4c9.2,0,16.6,7.3,16.6,16.4
		C86.6,111.2,79.1,118.6,70,118.6 M70,92c-5.7,0-10.3,4.6-10.3,10.2c0,5.6,4.6,10.2,10.3,10.2c5.7,0,10.3-4.6,10.3-10.2
		C80.3,96.6,75.7,92,70,92"/>
	<path class="st0" d="M105.3,118.6c-9.2,0-16.6-7.3-16.6-16.4c0-9,7.5-16.4,16.6-16.4c9.2,0,16.6,7.3,16.6,16.4
		C122,111.2,114.5,118.6,105.3,118.6 M105.3,92C99.6,92,95,96.6,95,102.2c0,5.6,4.6,10.2,10.3,10.2c5.7,0,10.3-4.6,10.3-10.2
		C115.7,96.6,111,92,105.3,92"/>
	<path class="st0" d="M27.7,91.9v6.3h16.6c-0.1,2-0.7,4.2-2,6.4c-1.5,2.5-3.5,4.4-6,5.8c-2.4,1.3-5.1,2-8.1,2c-2.5,0-5-0.5-7.2-1.6
		c-3-1.4-5.5-3.6-7.3-6.5c-1.8-2.9-2.7-6-2.7-9.4c0-2.9,0.7-5.7,2.1-8.3c1.4-2.6,3.4-4.7,5.8-6.2c2.7-1.7,5.8-2.6,9.3-2.6
		c9,0,14.7,7,16,8.6v-9.1c-2-1.6-3.9-2.9-5.8-3.8c-3-1.4-6.4-2.1-10.1-2.1c-1.4,0-2.7,0.1-4,0.4c-2.2,0.4-4.3,1-6.2,1.9
		c-1.9,0.8-3.8,2-5.6,3.4c-2.4,1.9-4.4,4.4-5.9,7.4C5,87.8,4.1,91.3,4.1,94.8c0,3.2,0.7,6.4,2,9.5c1.9,4.4,4.9,7.9,8.8,10.5
		c4,2.6,8.4,3.9,13.2,3.9c5.9,0,11.2-2,15.7-6.1c4.8-4.3,7.3-9.6,7.3-15.9v-4.9H27.7z"/>
	<path class="st0" d="M270.5,118.6c-9.2,0-16.6-7.3-16.6-16.4c0-9,7.5-16.4,16.6-16.4c9.2,0,16.6,7.3,16.6,16.4
		C287.2,111.2,279.7,118.6,270.5,118.6 M270.5,92c-5.7,0-10.3,4.6-10.3,10.2c0,5.6,4.6,10.2,10.3,10.2c5.7,0,10.3-4.6,10.3-10.2
		C280.9,96.6,276.2,92,270.5,92"/>
	<path class="st0" d="M228.9,91.9v6.3h16.6c-0.1,2-0.7,4.2-2,6.4c-1.4,2.5-3.5,4.4-6,5.8c-2.4,1.3-5.1,2-8.1,2c-2.5,0-5-0.5-7.2-1.6
		c-3-1.4-5.5-3.6-7.2-6.5c-1.8-2.9-2.7-6-2.7-9.4c0-2.9,0.7-5.7,2.1-8.3c1.4-2.6,3.4-4.7,5.8-6.2c2.7-1.7,5.8-2.6,9.3-2.6
		c9,0,14.7,7,16,8.6v-9.1c-2-1.6-3.9-2.9-5.8-3.8c-3-1.4-6.4-2.1-10.1-2.1c-1.4,0-2.8,0.1-4,0.4c-2.3,0.4-4.3,1-6.2,1.9
		c-1.9,0.8-3.8,2-5.6,3.4c-2.4,1.9-4.4,4.4-5.9,7.4c-1.7,3.3-2.5,6.7-2.5,10.3c0,3.2,0.7,6.4,2,9.5c1.9,4.4,4.9,7.9,8.8,10.5
		c4,2.6,8.4,3.9,13.2,3.9c5.9,0,11.2-2,15.8-6.1c4.8-4.3,7.3-9.6,7.3-15.9v-4.9H228.9z"/>
	<path class="st0" d="M150.5,72.4v28.1c0,1.1-0.1,2.2-0.3,3.3c-0.5,2.6-1.5,4.7-2.9,6.2c-1.8,1.4-4.1,2.3-6.5,2.3
		c-5.7,0-10.3-4.6-10.3-10.2c0-5.6,4.6-10.2,10.3-10.2c3.2,0,6,1.4,7.9,3.6v-7.9c-2.3-1.3-5-2-7.9-2c-9.2,0-16.6,7.3-16.6,16.4
		c0,9,7.5,16.4,16.6,16.4c0.9,0,1.8-0.1,2.6-0.2c2.5-0.4,4.7-1.2,6.5-2.5c2.1-1.5,3.8-3.3,5-5.6c1.3-2.4,2-4.9,2-7.4V72.4H150.5z"/>
	<polygon class="st0" points="286.3,113.7 284.5,113.7 284.5,112.7 289.2,112.7 289.2,113.7 287.3,113.7 287.3,118.5 286.3,118.5 	
		"/>
	<polygon class="st0" points="290.2,112.7 291.3,112.7 293.1,115.4 294.8,112.7 295.9,112.7 295.9,118.5 294.9,118.5 294.9,114.4 
		293.1,117.1 293,117.1 291.2,114.4 291.2,118.5 290.2,118.5 	"/>
	<path class="st1" d="M249.8,115.1v7.1h-80l17.9-13.9c6-4.7,9.7-9,11-12.8c0.7-2.1,1-4.3,1-6.5c0-2.2-0.6-4.8-1.7-7.5
		c-1.4-3.3-3.6-5.8-6.7-7.6c-2.9-1.6-6.2-2.4-9.9-2.4c-3.8,0-7.2,0.9-10.2,2.6c-6.1,3.5-9.1,8.5-9.1,15.3c0,2.6,0.5,5.1,1.4,7.2
		c1.8,4.2,5.1,7.3,9.8,9.2l0.1,0l5.9-4.5l-0.4-0.1c-2.7-0.7-4.9-1.8-6.6-3.5c-2.1-2.1-3.2-4.8-3.2-8.1c0-1.9,0.5-3.8,1.4-5.6
		c2.1-4,5.5-6.1,10.2-6.1c0.7,0,1.3,0,1.9,0.1c1.7,0.2,3.3,0.7,4.6,1.5c3.7,2.1,5.5,5.2,5.5,9.2c0,4.6-2.2,8.7-6.5,12l-21.9,17.1
		c-2,1.6-3,3.4-3,5.6c0,0.8,0.2,1.4,0.5,2c1.3,2.1,4,3.1,8,3.1h93.2L249.8,115.1z"/>
</g>
</svg>
