<?xml version="1.0" encoding="utf-8"?>
<!-- Generator: Adobe Illustrator 22.1.0, SVG Export Plug-In . SVG Version: 6.00 Build 0)  -->
<svg version="1.1" id="Capa_1" xmlns="http://www.w3.org/2000/svg" xmlns:xlink="http://www.w3.org/1999/xlink" x="0px" y="0px"
	 viewBox="0 0 300 200" style="enable-background:new 0 0 300 200;" xml:space="preserve">
<style type="text/css">
	.st0{fill:#221F20;}
	.st1{fill:#CC132C;}
</style>
<g>
	<path class="st0" d="M191.4,111.7c2.8-1.6,5.1-3.8,7.4-6c0.6-0.6,0.7-1.4,0.9-2.2c1-5.9,3.3-11.1,7.5-15.4c2.5-2.5,5.4-4,9-4.2
		c5.8-0.2,9.3,3,9.4,8.8c0.1,3.9-1.2,7.5-2.5,11.2c-0.2,0.7-0.6,1.3-0.9,2c3.1,0.2,4.1-0.5,4.7-3.2c1.1-5.2,3.2-10,6.8-14
		c3-3.3,6.8-5.1,11.4-4.7c4.2,0.4,6.9,3,7.5,7.2c0.6,4.5-0.7,8.6-2.3,12.7c-0.3,0.7-0.6,1.3-0.9,2c3,0.2,4.2-0.6,4.9-3.3
		c0.9-3.5,2.2-6.9,3.9-10.1c1.3-2.6,3.2-4.7,5.3-6.6c3.9-3.4,9.2-2.5,11.8,2.2c1.2-1.3,1.5-2.9,2.1-4.3c1.3-3.2,2.5-6.5,3.8-9.7
		c0.3-0.8,0.7-1.3,1.8-1.3c1.9,0.1,3.8,0,6,0c-2,5-4,9.9-5.9,14.8c-2.6,6.4-5.2,12.9-7.6,19.3c-0.5,1.4-1.5,3.3,0.3,4.2
		c1.5,0.9,2.8-0.8,4-1.6c0.8-0.5,1-2,2.4-1.5c2.1,0.7,2.4,1.8,0.8,3.4c-2.2,2.2-4.7,4-8,4.5c-3.4,0.5-5.8-1.2-7.3-4.5
		c-1.3,1.5-2.8,2.5-4.5,3.5c-4.5,2.5-8.8,0.8-9.9-4.1c-0.2-1.1-0.3-1.3-1.7-1.2c-3.6,0.2-6.4,1.4-9,4c-1.8,1.8-4.4,2.2-7,2.5
		c-4,0.3-7.9-2.6-8.8-6.1c-0.2-0.9-0.5-1.1-1.3-0.7c-1.6,0.7-3.3,1-5,0.7c-1.2-0.2-1.6,0.6-2.1,1.2c-2.8,2.9-6,4.8-10.1,4.8
		c-4.3,0-7.1-1.8-8.7-6c-3.4,2.9-6.9,5.7-11,7.5c-0.7,0.3-0.8,1.2-1.1,1.9c-1.4,3.6-2.7,7.4-5.1,10.5c-2.3,3-5.2,4.6-9,4.2
		c-2.6-0.3-4.7-1.6-5.5-4.2c-0.7-2.3-0.4-4.3,1.4-6.4c2.3-2.5,5-4.2,8-5.2c3-1,5-2.6,5.7-5.8c0-0.2,0-0.4,0.1-0.5
		c-0.1,0.1-0.2,0.2-0.4,0.3c-2.7,1.7-5.4,3.5-8.8,3.7c-4.4,0.2-7.5-2.8-8.1-7.5c-0.4-3.1-0.1-6.2,0.7-9.2c0.4-1.5-0.1-2-1.4-2.5
		c-6.2-2.7-10.5-8.2-10-14.4c0.4-4.9,2.4-9,6.6-11.9c0.9-0.6,1.4-0.7,1.9,0.3c0.1,0.3,0.3,0.5,0.5,0.7c0.7,1,1.8,1.9,1.9,2.9
		c0.1,1.1-1.6,1.5-2.3,2.3c-2.2,2.4-3,5-2.2,8.2c0.9,3.3,3.3,5.3,6.3,6.6c1.3,0.5,1.1-0.7,1.3-1.2c2.5-6,5.5-11.6,9.8-16.4
		c3.7-4.2,8.1-7.3,13.9-8c7.6-0.9,12.9,5.2,11,12.6c-2.9,11.8-11.3,17.3-22.5,19.7c-1.6,0.3-3.2,0.4-4.9,0.5
		c-3.2,0.1-3.7,0.4-4.1,3.5c-0.2,1.7-0.2,3.5,0,5.3c0.3,2.6,1.9,3.7,4.4,2.8c4.8-1.8,8.7-4.7,10.8-9.6c0.6-1.5,1.2-2.4,3.2-2.6
		c1.9-0.2,3.6-1.3,5.9-1.7c-2.1,5.1-4,10-6,14.9c-0.1,0.2-0.4,0.5,0,0.7C191,112.1,191.2,111.8,191.4,111.7z M178.8,122.2
		c-1.9,0.5-3.4,1.6-5.2,2.3c-1.5,0.6-1.4,1.9-1.7,3c-0.1,0.6,0.3,1.1,0.9,1.3c1.2,0.4,2.1-0.2,3-1c1.6-1.5,2.4-3.5,3.3-5.4
		c0-0.2,0-0.3,0-0.5C179,122,178.9,122.1,178.8,122.2z M176.1,92.5c2.1,1.3,3.9-0.1,5.8-0.5c5.3-1.1,9.5-4,12.7-8.3
		c1.6-2.1,2.6-4.4,2.6-7.2c-0.1-2.6-1.6-3.9-4.2-3.6c-2.8,0.3-4.9,1.9-6.9,3.8C181.5,81.3,178.5,86.8,176.1,92.5z M206.1,106.8
		c0,0.3-0.1,0.6-0.1,0.9c0,1.4,0.1,2.8,1.6,3.4c1.8,0.7,3.1-0.6,4.2-1.7c0.8-0.9,2-1.6,0.9-3.3c-1.2-2-0.1-4.9,2.2-5.3
		c2-0.3,2.3-1.5,2.7-2.9c0.4-1.3,0.7-2.6,0.9-3.9c0.2-1.8,0.8-4-1.4-4.9c-2.1-0.9-3.4,0.8-4.7,2.2c-2.7,3-4,6.6-5.3,10.3
		C206.8,103.2,205.6,104.8,206.1,106.8z M246,92.3c0-1.4,0-2.8-1.5-3.4c-1.4-0.6-2.6,0.2-3.6,1.1c-0.2,0.1-0.3,0.3-0.5,0.5
		c-4.3,5-6.4,10.8-7.2,17.2c-0.2,1.2,0.2,2.6,1.5,3.2c1.3,0.7,2.5,0,3.4-0.8c0.7-0.6,1.3-1.2,1.9-1.9c0.5-0.6,0.7-1,0.2-1.9
		c-1.4-2.8-0.3-5.2,2.9-5.9c0.7-0.2,1-0.3,1.3-1C245.1,97.1,245.9,94.8,246,92.3z M260.2,106.9c0,1.2-0.1,2.3,1.1,3
		c1.1,0.6,2.1,0.1,3.1-0.4c1.1-0.6,2.1-1.4,2.8-2.4c3-3.9,4.1-8.7,5.9-13.2c0.5-1.2-0.2-2.8-1.7-3.5c-1.2-0.6-2.3-0.5-3.5,0.6
		C263.3,95.2,261.7,101,260.2,106.9z"/>
	<path class="st0" d="M60,72.3c-4.3,10.7-8.5,21.1-12.7,31.5c-0.7,1.7-1.4,3.4-1.5,5.3c-0.2,2.1,0.9,2.9,2.9,2.1
		c1.4-0.5,2.5-1.5,3.6-2.6c2.7-3,4.7-6.5,6.2-10.2c3.1-7.7,6.2-15.5,9.4-23.2c2-4.8,5.3-8.3,11-8.4c1.4,0,2.6,1,3.9,0.5
		c0.3,0.8-0.2,1.2-0.3,1.8c0,1.9-0.2,3.7-3.1,3.3c-1.6-0.2-3.1,0.7-4,2.5c-3.5,7.9-6.5,16-9.8,24c-1.9,4.6-4.1,9-7.4,12.8
		c-2.6,3-5.8,5.2-9.8,5.5c-4.6,0.3-6.8-0.7-8.2-5c-2.4,2-4.8,4-7.9,4.7c-6.1,1.5-9.8-1.5-9.5-7.7c0.2-3.7,1.5-7,2.8-10.4
		c2.4-5.9,4.8-11.8,7.2-17.6c0.2-0.5,0.3-0.9,0.6-1.7c-5.1,1.6-10,3.2-14.1,6.2c-1.7,1.3-2.3,3.4-2.1,5.5c0.2,2,1.4,3.3,3.4,3.6
		c1,0.2,1.2,0.6,1.1,1.5c-0.1,0.5,0,1,0,1.6c0,3.5-0.3,3.7-3.7,2.6c-7.2-2.3-9.1-11.8-3.9-17.3c4.8-5.2,11.2-6.9,17.3-9.2
		c2.8-1.1,5.8-1.8,7.7-4.4c0.6-0.8,1.7-1.4,2.7-1.8c3.1-1.5,4.2-0.7,4.8,2.7c0.1,0.8-0.2,0.9-0.7,1.2c-2.3,1.4-3.6,3.7-4.6,6.1
		c-3.6,8.7-7,17.5-10.5,26.3c-0.6,1.6-1.2,3.2-1.3,4.9c-0.1,2.1,1,2.9,2.9,2c1.6-0.7,3-1.6,4.2-3.1c5-6.4,7.1-14.1,10.2-21.3
		c1.9-4.3,3.6-8.7,5.3-13.1c0.4-0.9,0.8-1.4,1.9-1.4C55.9,72.4,57.8,72.3,60,72.3z"/>
	<path class="st0" d="M129.5,72.8c-2.5,6.3-5,12.3-7.4,18.4c-2.1,5.3-4.2,10.5-6.2,15.9c-0.5,1.3-1.4,3.1,0.2,4.1
		c1.5,0.9,2.7-0.6,3.9-1.5c0.6-0.4,1.1-1,1.6-1.4c0.2,0.1,0.2,0.1,0.3,0.2c1.5,3.6,1.5,3.7-1.9,5.9c-0.9,0.6-1.9,1.1-3,1.3
		c-4.6,0.9-7.3,0.2-8.3-5.3c-1.1,0.2-1.8,1-2.4,1.8c-2.4,3-5.5,4.1-9.2,3.7c-2.3-0.2-3.9-1.8-4.2-4.2c-0.3-1.8-0.7-1.7-2-0.7
		c-4.1,3.5-8.8,5.3-14.3,4.9c-6.7-0.4-9.2-4.4-9-9.6c0.4-7.4,3.2-13.9,8.8-19.1c2.6-2.4,5.7-3.5,9.2-3.5c5.3,0,8.3,4.2,7,9.4
		c-1.8,7.2-6.6,10.6-14.4,10.5c-1.4,0-3.4-1.2-3.7,1.6c-0.4,3.1,0.6,5.2,3,5.9c2.2,0.7,4.4,0.3,6.5-0.6c5.3-2.3,9.3-5.9,11.5-11.3
		c3.3-8.2,6.6-16.3,9.8-24.5c0.6-1.4,1.2-2.2,2.8-2c1,0.1,2.1,0.1,3.1,0c2.1-0.3,2,0.5,1.4,2.2c-4.1,10-8.1,20-12.1,30
		c-0.6,1.6-1.3,3.2-1.2,4.9c0.1,1.8,0.9,2.2,2.4,1.3c4.8-2.9,7.8-7.2,10-12.1c3.5-8.1,6.7-16.3,9.9-24.4c0.6-1.4,1.2-1.9,2.7-1.8
		C125.8,72.9,127.6,72.8,129.5,72.8z M76.2,99.4c4.7,0.7,7.1-0.6,9-5c0.6-1.4,1.8-3,0.4-4.3c-1.3-1.2-2.7,0.2-4.1,0.6
		c-0.6,0.2-1,0.6-1.3,1.1C78.7,94.3,77.1,96.6,76.2,99.4z M92.2,109.9c0,0-0.1,0.1-0.1,0.1c0.1,0.2,0.2,0.2,0.3,0c0,0,0-0.1-0.1-0.1
		C92.3,109.9,92.3,109.9,92.2,109.9z"/>
	<path class="st1" d="M147.5,91.4c1.2-1.2,1.1-2.3,0.5-3.4c-0.7-1.3-1.9-1.9-3.3-1.8c-2,0.1-3.6,1-4.5,2.8c-1,2.1-1.1,4.4,0.5,6
		c1.5,1.6,0.2,2.4-0.3,3.5c-0.8,1.5-1.6,0.6-2.5,0.3c-3-1-6.3,0.7-7.4,3.9c-1.2,3.5,0.6,7.5,3.9,8.5c4.6,1.5,9.8-2,10.3-6.8
		c0.1-1-0.2-1.4-1.2-1.1c-1.8,0.5-3.4,1.1-3.9,3.2c-0.4,1.9-1.9,1.3-2.8,1.1c-1.3-0.3-0.4-1.3-0.3-2c0.6-2.9,2.5-4.6,5.2-5.5
		c2.7-0.9,5.5-1.1,8.2-1.7c1.6-0.4,3.4-0.4,2.9-3.2c-0.2-1.2,1.8-1.1,2.8-1.6c0.8-0.4,0.9,0.5,1.1,1c1.3,3.1,0.4,6-2.8,6.8
		c-3.6,0.8-4.7,2.7-5.8,6.1c-2.7,8.8-13.7,11.5-19.8,5.3c-3.1-3.1-3.7-6.8-2.6-10.8c1.1-4.1,3.9-6.8,8.2-7.5
		c1.3-0.2,1.6-0.5,1.4-1.9c-0.7-6.7,5-11.7,11.6-10.2c4.5,1,7,6,4.9,10c-0.9,1.8-2.4,2.9-4.5,3.2c-0.8,0.1-1.6,0-2.4-0.3
		c-1.6-0.6-2.5-1.8-2.5-3.6c0-1.2,0.5-2.2,1.7-2.6C145.9,88.9,146.9,89.8,147.5,91.4z"/>
</g>
</svg>
