<?xml version="1.0" encoding="utf-8"?>
<!-- Generator: Adobe Illustrator 22.1.0, SVG Export Plug-In . SVG Version: 6.00 Build 0)  -->
<svg version="1.1" id="Capa_1" xmlns="http://www.w3.org/2000/svg" xmlns:xlink="http://www.w3.org/1999/xlink" x="0px" y="0px"
	 viewBox="0 0 300 200" style="enable-background:new 0 0 300 200;" xml:space="preserve">
<g>
	<path d="M159.3,5.4c0.8,0.2,1.6,0.6,2.4,0.7c3.7,0.4,7.4,1.1,11.1,2.1c2.3,0.6,4.7,1.3,7,2c1.7,0.5,3.3,1.2,4.9,1.9
		c1.4,0.6,2.8,1.1,4.1,1.8c1.8,0.8,3.6,1.7,5.4,2.6c2.1,1.2,4.2,2.4,6.3,3.7c4.6,2.9,8.9,6.3,13,10c4,3.6,7.6,7.5,10.8,11.8
		c2.2,3,4.3,6,6.3,9.2c1.5,2.4,2.8,4.9,4.1,7.5c1.4,3,2.7,6,3.9,9.1c1.3,3.3,2.2,6.7,3,10.1c1.1,4.4,1.8,8.8,2.3,13.3
		c0.5,5,0.6,10,0.2,15c-0.1,0.8-0.1,1.6-0.1,2.4c0,0.7,0.4,1.2,1.1,1.4c1.4,0.4,2.7,0.8,4.1,1.2c3,0.7,5.9,0.2,8.6-1.3
		c1.5-0.8,2.7-2.2,4-3.3c0.4-0.4,0.7-0.8,1.2-1.2c1.2-0.9,2.3-0.8,3.5,0.2c0.3,0.2,0.5,0.4,0.8,0.6c0,1.1,0,2.1,0,3.2
		c-0.7,0.7-1.4,1.4-2.2,2.1c-2.9,2.7-6.2,4.4-10.1,5.2c-2.6,0.5-5.2,0.8-7.8,0.6c-1-0.1-2-0.3-2.9-0.6c-0.9-0.2-1.3,0-1.5,0.9
		c-0.6,2.8-1.2,5.7-2,8.5c-0.7,2.6-1.7,5.2-2.7,7.8c-0.9,2.3-1.8,4.5-2.8,6.8c-1,2.1-2,4.2-3.3,6.2c-2.1,3.3-4.2,6.6-6.5,9.8
		c-3.1,4.4-6.8,8.4-10.7,12.1c-3.5,3.4-7.3,6.5-11.4,9.2c-2.6,1.8-5.4,3.4-8.2,5c-2.7,1.5-5.4,2.8-8.2,4c-1.9,0.9-3.8,1.6-5.8,2.3
		c-3,1-6,2-9,2.7c-3.4,0.8-6.9,1.3-10.3,1.9c-6.9,1.3-13.8,0.5-20.7,0.6c-1.3,0-2.5-0.4-3.8-0.6c-2.6-0.5-5.1-0.8-7.7-1.4
		c-2.5-0.5-4.9-1.2-7.3-1.9c-1.9-0.6-3.7-1.3-5.6-2c-1.4-0.5-2.8-1.1-4.2-1.7c-1.7-0.7-3.3-1.5-4.9-2.3c-2.1-1.1-4.3-2.2-6.4-3.4
		c-2.4-1.4-4.7-2.9-6.9-4.6c-3.2-2.4-6.2-5-9.2-7.7c-3.6-3.3-6.8-6.9-9.8-10.8c-3.1-4-6-8.2-8.4-12.7c-1.7-3.3-3.3-6.7-4.8-10.1
		c-1-2.5-1.8-5-2.6-7.6c-0.7-2.3-1.4-4.7-2-7c-0.3-1-0.4-2.1-0.5-3.2c-0.1-0.8-0.5-1-1.3-0.9c-4.2,0.6-8.4,0.3-12.5-1.1
		c-3.4-1.1-6.3-3-8.7-5.8c-0.1-0.1-0.1-0.2-0.2-0.3c-1.4-1-1.2-2.4-1.1-3.8c0-0.1,0-0.2,0-0.3c0.4-1,2.7-1.9,3.6-1.2
		c0.7,0.4,1.3,1,1.8,1.6c3.7,4.6,9,6.3,14.8,4.6c0.3-0.1,0.7-0.2,1-0.3c1.1-0.2,1.3-0.4,1.2-1.5c-0.1-1.8-0.3-3.6-0.3-5.4
		c0-3.4,0.1-6.8,0.3-10.2c0.2-2.8,0.5-5.6,0.9-8.4c0.3-2.2,0.9-4.3,1.3-6.4c0.3-1.3,0.6-2.7,1-4c0.6-2.1,1.3-4.1,2-6.2
		c0.5-1.4,1-2.8,1.6-4.2c0.8-1.8,1.5-3.6,2.4-5.3c1-2,1.9-3.9,3.1-5.8c1.9-3,3.8-6,5.9-8.9c3.3-4.8,7.3-9.1,11.5-13
		c3.6-3.4,7.4-6.5,11.5-9.1c2.3-1.5,4.6-3,7-4.4c2.8-1.5,5.7-2.9,8.5-4.2c2.2-1,4.5-1.9,6.9-2.8c2-0.7,4.1-1.3,6.2-1.9
		c1.7-0.5,3.5-0.9,5.2-1.3c2.5-0.5,5-0.8,7.6-1.2c0.6-0.1,1.3-0.4,1.9-0.6C146.4,5.4,152.8,5.4,159.3,5.4z M237.6,99
		c-0.4-47.8-39.2-86.7-86.9-87.2c-49.3-0.6-90.3,39.6-89.2,90.3c1,46.7,38.9,85.6,87.1,86.1C197.9,188.7,238.2,148.6,237.6,99z"/>
	<path d="M250,129.6c0-0.8,0-1.5,0-2.3c0-0.6,0.1-1,0.9-0.8c0.4,0.1,0.8-0.1,1.2-0.3c0.9-0.3,1.6-0.2,2.3,0.4c0.4,0.4,0.7,0.4,1.1,0
		c0.7-0.8,2-0.8,2.8,0c0.7,0.6,1.1,1.4,1.1,2.4c0,0.9,0,1.8,0,2.8c0,0.5-0.1,1-0.7,1c-0.7,0-0.7-0.6-0.7-1.1c0-1,0.1-2,0-3
		c-0.1-1.1-1-1.6-1.9-1.2c-0.3,0.2-0.6,0.6-0.7,0.9c-0.1,1,0,2.1-0.1,3.2c0,0.3-0.1,0.8-0.3,1c-0.5,0.4-1-0.1-1-0.8
		c0-1.1,0.1-2.1,0-3.2c-0.1-1-0.9-1.5-1.8-1.2c-0.3,0.1-0.7,0.5-0.7,0.8c-0.2,1-0.2,2-0.2,3c0,0.2,0.1,0.5,0,0.7
		c-0.1,0.3-0.4,0.5-0.6,0.7c-0.2-0.2-0.6-0.4-0.6-0.7C249.9,131.3,249.9,130.4,250,129.6C250,129.6,250,129.6,250,129.6z"/>
	<path d="M245.9,129.9c-0.1-1.1,0.2-2-0.5-2.8c-0.1-0.1-0.1-0.5,0-0.7c0.2-0.6,0.4-1.1,0.6-1.6c0.1-0.2,0.3-0.4,0.5-0.5
		c0.2,0.2,0.6,0.3,0.6,0.5c0,0.9,0.4,1.4,1.4,1.5c0.2,0,0.4,0.4,0.4,0.5c-0.1,0.2-0.3,0.5-0.5,0.6c-1.2,0.4-1.2,0.4-1.1,1.6
		c0,0.6,0,1.1,0,1.7c0,0.6,0.3,0.9,0.9,1.1c0.3,0.1,0.5,0.5,0.8,0.7c-0.3,0.2-0.6,0.5-1,0.6c-1,0.1-1.8-0.7-1.9-1.7
		C245.8,130.8,245.9,130.2,245.9,129.9z"/>
	<path d="M234.7,100c0,47-38.2,85.3-85.1,85.2c-46.9,0-85.1-38.1-85.1-85.2c0-46.9,38-85.2,85.1-85.2
		C196.6,14.7,234.7,53.1,234.7,100z M149.4,182.8c45.6,0.1,82.6-36.8,82.9-82.3c0.3-46-36.8-83.2-82.5-83.3
		c-45.7-0.1-82.6,36.8-82.9,82.3C66.6,145.5,103.8,182.7,149.4,182.8z"/>
	<path d="M133.8,96.5c-5.6,0-11.2,0.4-16.7,1.3c-2.4,0.4-4.7,1-7,1.5c-0.6,0.1-0.7,0.5-0.7,1.1c0.1,1.2,0.2,2.3,0.1,3.5
		c-0.4,4.7-2.6,8.4-6.4,11.2c-2.6,1.9-5.5,2.9-8.6,2.9c-5.7,0-10.2-2.4-13.3-7.2c-2.3-3.4-2.9-7.1-2.2-11c0.6-3.7,2.5-6.7,5.3-9.1
		c1.6-1.4,3.4-2.4,5.3-2.9c1.8-0.5,3.7-1,5.7-0.6c1.7,0.3,3.4,0.5,5,1.2c2.3,1,4.3,2.4,5.8,4.5c1.6,2.2,1.1,1.8,3.4,1.2
		c2-0.5,4.1-0.8,6.2-1.2c2.5-0.4,5-0.9,7.6-1.1c5.1-0.5,10.2-0.5,15.3-0.3c0.5,0,0.9,0.1,1.4,0c0.2,0,0.5-0.1,0.7-0.2
		c-0.1-0.2-0.1-0.5-0.2-0.7c-0.7-1-1.4-1.8-2-2.8c-1.8-3-2.4-6.1-1.3-9.5c0.7-2.2,1.9-4,3.8-5.2c2.8-1.7,5.9-2.3,9.2-1.6
		c1.9,0.4,3.7,0.9,5.2,2.2c2,1.8,3.1,4,3.3,6.7c0.1,2.1-0.2,4.1-0.9,6c-0.7,1.9-1.9,3.5-3.3,4.9c-0.8,0.8-1.6,1.6-2.5,2.3
		c-0.9,0.8-0.9,0.9-0.2,1.9c1.5,2,3,4,4.5,6c0.6,0.8,1.2,1.7,1.8,2.5c0.6,0.8,0.8,0.8,1.7,0.2c1.9-1.2,3.8-2.3,5.7-3.4
		c1.4-0.8,2.9-1.5,4.4-2.1c1.7-0.7,3.6-1.2,5.4-1.8c1.1-0.3,2.2-0.6,3.3-0.8c4.1-1.1,8.3-0.9,12.5-0.6c0.6,0,0.9-0.1,1.2-0.6
		c1.7-2.9,4-5.1,7.1-6.4c2.8-1.2,5.8-1.8,8.9-1.1c1.3,0.3,2.6,0.5,3.8,1.1c1.7,0.8,3.3,1.9,4.6,3.3c3.4,3.6,5,7.8,4.4,12.7
		c-0.5,4.2-2.5,7.7-5.9,10.4c-3.2,2.5-6.9,3.7-11,3.2c-5.2-0.6-9.1-3.2-11.8-7.6c-1.6-2.6-2.4-5.5-2.1-8.6c0.1-0.8-0.4-1-1-1
		c-1.4,0-2.9,0-4.3,0.1c-2,0.2-4,0.5-6,1c-1.8,0.4-3.5,1.2-5.2,1.8c-1.5,0.6-2.9,1.2-4.3,2c-2.1,1.3-4.2,2.6-6.2,4
		c-0.5,0.3-0.5,0.8-0.1,1.3c0.6,0.8,1.2,1.6,1.8,2.4c0.6,0.8,1.7,1,2.6,0.3c0.9-0.7,1.7-1.4,2.7-2.1c1.4-0.9,2.5-0.7,3.6,0.6
		c0.8,0.9,0.9,2.4,0,3.5c-2.3,3.1-5.3,4.4-9.1,3.9c-1.7-0.3-3-1.4-4.2-2.6c-0.4-0.4-0.8-0.9-1.1-1.3c-0.3-0.5-0.7-0.5-1.1-0.2
		c-0.5,0.5-1.1,0.9-1.6,1.4c-1.8,1.5-3.7,2.6-6.1,2.9c-1.3,0.2-2.6,0.5-3.8,0.5c-4.1-0.1-7.9-1.3-10.5-4.7
		c-2.3-3.1-2.9-6.6-2.1-10.3c0.6-2.9,2.1-5.3,4.1-7.6c0.2-0.2,0.2-0.5,0.3-0.8c-0.3-0.1-0.5-0.3-0.8-0.3
		C136.4,96.5,135.1,96.5,133.8,96.5z M147.7,114.4c0.5-0.1,1.7-0.2,2.6-0.7c1.4-0.8,2.7-1.9,4-2.9c0.5-0.4,0.5-0.9,0.1-1.4
		c-0.7-0.9-1.3-1.8-2-2.7c-1.9-2.6-3.8-5.2-5.7-7.8c-0.5-0.6-0.7-0.7-1.3-0.1c-0.6,0.5-1.1,1.1-1.6,1.6c-2.3,2.3-3.5,5-3.1,8.3
		c0.1,1.2,0.6,2.1,1.2,3C143.2,113.7,145.1,114.3,147.7,114.4z M103.2,103.1c0-0.1,0-0.3,0-0.4c0.1-1.2-0.1-1.5-1.3-1.1
		c-1.2,0.4-2.4,0.9-3.5,1.4c-1.7,0.7-3.4,1.4-5,2.2c-1.8,0.8-3.5,1.7-5.2,2.6c-0.6,0.3-0.7,0.7-0.2,1.1c0.4,0.3,0.7,0.7,1.2,0.9
		c2.5,1.5,5,2,7.9,1.1C100.2,110,103.1,106.5,103.2,103.1z M205.7,111.6c0.8-0.2,1.8-0.4,2.7-0.6c1.4-0.4,2.4-1.2,3.5-2.1
		c0.3-0.3,0.6-0.6,0-0.9c-1.2-0.6-2.4-1.1-3.6-1.7c-3.2-1.6-6.7-2.5-10.1-3.6c-0.3-0.1-0.7-0.2-1-0.2c-0.5,0-0.8,0.3-0.6,0.8
		c0.3,1.1,0.5,2.2,1,3.2C199.1,109.8,201.9,111.2,205.7,111.6z M152.2,81.1c0.1-0.8-0.3-1.8-0.9-2.6c-1.3-1.8-3.8-2.2-5.9-1.1
		c-1.6,0.8-2.5,3.4-2,5.2c0.6,2.4,2.1,4.3,3.6,6.2c0.3,0.5,0.7,0.3,1.1,0c0.4-0.4,0.8-0.8,1.2-1.2C151,85.8,152.1,83.8,152.2,81.1z
		 M94.1,93.3c-1.5,0.1-3.2,0.5-4.6,1.4c-2.7,1.8-4.1,4.3-4.2,7.6c0,0.6,0.4,0.9,1,0.6c1.1-0.6,2.1-1.2,3.2-1.8
		c1.6-0.8,3.2-1.5,4.8-2.2c0.8-0.3,1.5-0.7,2.3-1c1.1-0.4,2.2-0.8,3.2-1.2c0.3-0.1,0.7-0.2,0.7-0.4c0-0.3-0.1-0.7-0.4-0.9
		C98.5,94.2,96.5,93.4,94.1,93.3z M205.1,93.3c-0.5,0.1-1.6,0.1-2.4,0.5c-1.3,0.6-2.4,1.4-3.6,2.2c-0.4,0.3-0.4,0.7,0.2,0.8
		c2.2,0.7,4.4,1.3,6.6,2.1c2.5,1,5,2.1,7.5,3.2c0.3,0.1,0.6,0.2,0.9,0.2c0.1-0.3,0.2-0.7,0.2-1c-0.2-1.5-0.7-2.9-1.6-4.2
		C211.2,94.7,208.7,93.4,205.1,93.3z"/>
	<path d="M161.2,164.1c-2.5-0.1-5.3-1.4-7.1-4.2c-1.3-2-1.8-4.3-1.3-6.7c0.6-2.7,2-4.7,4.3-6.1c1.3-0.8,2.7-1.1,4.1-1.2
		c4-0.3,7.4,1.3,9.3,4.9c2.2,4.4,0.7,9.5-3.5,11.9C165.3,163.7,164,164.1,161.2,164.1z M166.4,154.9c0-2.5-1.8-4.5-4.3-4.6
		c-2.2,0-4.2,2-4.3,4.4c-0.1,2.5,2.1,4.7,4.2,4.7C164.5,159.4,166.4,157.6,166.4,154.9z"/>
	<path d="M175.3,42.6c0.1-0.3,0.2-0.5,0.3-0.8c0.6-2,1.1-4,1.7-6.1c0.3-1,0.8-1.2,1.7-0.9c0.7,0.2,1.5,0.4,2.2,0.7
		c0.7,0.3,0.8,0.7,0.5,1.5c-0.5,1.5-0.9,3-1.4,4.5c-0.4,1.2-0.7,2.4-1.1,3.6c-0.3,1.1-0.7,2.3-1,3.4c-0.3,1-0.5,1.9-0.9,2.9
		c-0.2,0.6-0.6,0.9-1.3,0.5c-0.4-0.2-0.8-0.3-1.2-0.3c-1.5-0.2-1.7-1.4-2.1-2.5c-0.8-2-1.5-4.1-2.3-6.2c-0.1-0.3-0.2-0.7-0.3-1.1
		c-0.1-0.3-0.4-0.5-0.6-0.7c-0.2,0.2-0.5,0.4-0.6,0.7c-0.3,1-0.6,2-0.9,2.9c-0.3,1.1-0.6,2.3-1,3.4c-0.1,0.5-0.5,0.8-1,0.7
		c-0.9-0.2-1.9-0.5-2.8-0.8c-0.8-0.3-0.8-0.7-0.5-1.5c0.4-1,0.7-2.1,1.1-3.2c1-3.3,2-6.5,2.9-9.8c0.1-0.4,0.2-0.9,0.4-1.3
		c0.1-0.3,0.6-0.7,0.7-0.6c1,0.2,2,0.5,2.9,1c0.4,0.2,0.7,0.7,0.9,1.2c0.8,2,1.5,4.1,2.3,6.1c0.3,0.7,0.5,1.4,0.8,2.1
		C175,42.2,175.1,42.3,175.3,42.6z"/>
	<path d="M108.7,60.5c-0.1,1.4-0.9,2.9-1.9,4.3c-1.2,1.7-2.5,3.3-3.8,5c-0.1,0.1-0.1,0.2-0.2,0.2c-0.7,1.1-1,1.1-2.1,0.3
		c-2.7-2.1-5.5-4.2-8.2-6.2c-1.1-0.8-2.2-1.7-3.3-2.5c-0.7-0.6-0.7-0.9-0.1-1.7c1.4-1.8,2.7-3.6,4.1-5.4c1-1.3,2.2-2.2,3.7-2.6
		c1.9-0.6,4.6,1,5.1,3c0.2,0.9,0.4,1,1.2,0.7c1.2-0.4,2.2-0.1,3.2,0.5C107.8,57,108.7,58.3,108.7,60.5z M105,60.9
		c-0.4-0.5-0.7-1-1.1-1.4c-0.5-0.3-1-0.2-1.4,0.3c-0.9,1.1-1.9,2.1-2.7,3.2c-0.1,0.2-0.1,0.7,0.1,0.9c0.4,0.4,1,0.8,1.5,1.1
		c0.5,0.3,0.9,0.3,1.2-0.3c0.3-0.6,0.8-1.1,1.1-1.6C104.1,62.5,104.5,61.8,105,60.9z M98.6,57.4c-0.2-0.3-0.4-0.7-0.7-0.9
		c-0.6-0.4-1.2-0.4-1.8,0.1c-0.5,0.4-0.9,0.9-1.3,1.4c-1.2,1.4-1.2,1.4,0.1,2.5c0,0,0.1,0.1,0.1,0.1c0.7,0.6,1.2,0.6,1.8-0.2
		c0.4-0.6,0.9-1.2,1.3-1.9C98.4,58.2,98.4,57.8,98.6,57.4z"/>
	<path d="M122.6,40c-0.2-4.8,4.3-8.8,9.2-8.9c5.1,0,9,4.1,8.9,8.9c0,5-4.1,8.8-9.2,8.8C126.4,48.9,122.6,45.1,122.6,40z M131.7,44.5
		c2.5,0.3,4.4-2.3,4.3-4.2c-0.1-2.6-2-4.7-4.3-4.7c-2.4,0-4.4,1.9-4.4,4.4C127.3,42,129.2,44.8,131.7,44.5z"/>
	<path d="M203.6,73.6c-2.8,0-5-1.3-6.7-3.4c-1.4-1.6-2.7-3.4-4-5.1c-0.4-0.5-0.4-0.9,0.1-1.3c0.9-0.7,1.8-1.5,2.7-2.2
		c2.8-2.2,5.7-4.3,8.5-6.4c0.4-0.3,0.7-0.7,1.1-0.8c0.3-0.1,0.8,0,0.9,0.2c1.7,2.3,3.8,4.4,5,7c0.7,1.4,0.9,2.9,0.7,4.5
		c-0.5,3.9-3,6.1-6.6,7.3C204.9,73.6,204.2,73.6,203.6,73.6z M207.7,63.9c-0.1-0.9-1.1-2.1-2.1-3.3c-0.1-0.1-0.7-0.1-0.9,0
		c-1.9,1.4-3.8,2.8-5.6,4.3c-0.2,0.2-0.4,0.7-0.2,0.9c1,1.4,1.9,2.8,3.9,3C205.1,69.2,207.7,67,207.7,63.9z"/>
	<path d="M127,163.4c-3.5,0.3-6-1.3-7.9-4c-1.2-1.7-1.5-3.7-1.4-5.8c0.2-3.1,1.7-5.6,4.4-7.1c2.6-1.5,5.3-1.7,8.2-0.7
		c1.4,0.5,2.5,1.3,3.6,2.4c0.6,0.6,0.6,0.9-0.1,1.4c-0.8,0.7-1.6,1.3-2.5,1.9c-0.6,0.4-1,0.1-1.4-0.3c-0.9-1-2.1-1.3-3.4-1.3
		c-1.9,0.1-2.9,1.3-3.4,2.9c-0.6,1.7,0,4.2,1.6,5.3c1.3,0.9,3.5,0.8,4.7-0.1c1.5-1.2,1.5-1.2,3.1,0c0.5,0.4,1,0.7,1.4,1.1
		c0.5,0.4,0.5,0.8,0,1.3C132,162.3,129.8,163.6,127,163.4z"/>
	<path d="M185.1,159.3c0-1.6,1.4-3.1,3-3.1c1.6,0,3.2,1.6,3.2,3.1c0,1.5-1.7,3.2-3.2,3.1C186.5,162.4,185.1,160.9,185.1,159.3z"/>
</g>
</svg>
