<?xml version="1.0" encoding="utf-8"?>
<!-- Generator: Adobe Illustrator 22.1.0, SVG Export Plug-In . SVG Version: 6.00 Build 0)  -->
<svg version="1.1" id="Capa_1" xmlns="http://www.w3.org/2000/svg" xmlns:xlink="http://www.w3.org/1999/xlink" x="0px" y="0px"
	 viewBox="0 0 300 200" style="enable-background:new 0 0 300 200;" xml:space="preserve">
<style type="text/css">
	.st0{fill:#221F20;}
	.st1{fill:#CC132C;}
</style>
<g>
	<path class="st0" d="M193,112.2c2.9-1.7,5.3-3.9,7.6-6.3c0.7-0.7,0.8-1.4,0.9-2.3c1.1-6.1,3.4-11.6,7.8-16c2.6-2.6,5.6-4.2,9.4-4.3
		c6-0.2,9.6,3.2,9.7,9.1c0.1,4.1-1.2,7.8-2.6,11.6c-0.3,0.7-0.6,1.4-0.9,2.1c3.2,0.2,4.2-0.6,4.8-3.4c1.2-5.4,3.3-10.4,7.1-14.5
		c3.2-3.5,7-5.3,11.8-4.9c4.3,0.4,7.2,3.1,7.7,7.4c0.6,4.6-0.7,9-2.4,13.2c-0.3,0.7-0.6,1.4-0.9,2.1c3.2,0.2,4.4-0.6,5.1-3.5
		c0.9-3.7,2.3-7.1,4-10.5c1.4-2.7,3.3-4.9,5.6-6.8c4.1-3.6,9.5-2.6,12.3,2.3c1.2-1.3,1.6-3,2.2-4.5c1.4-3.3,2.6-6.7,3.9-10.1
		c0.3-0.8,0.8-1.4,1.9-1.3c2,0.1,4,0,6.3,0c-2.1,5.2-4.1,10.3-6.2,15.4c-2.7,6.7-5.4,13.3-7.9,20.1c-0.5,1.4-1.5,3.4,0.3,4.4
		c1.6,0.9,2.9-0.8,4.2-1.7c0.8-0.5,1.1-2,2.5-1.6c2.2,0.7,2.5,1.9,0.8,3.5c-2.3,2.3-4.9,4.2-8.3,4.7c-3.5,0.5-6-1.3-7.5-4.7
		c-1.3,1.6-2.9,2.6-4.6,3.6c-4.7,2.6-9.1,0.9-10.2-4.3c-0.2-1.1-0.3-1.4-1.8-1.3c-3.8,0.2-6.7,1.5-9.3,4.2c-1.9,1.9-4.5,2.3-7.2,2.6
		c-4.2,0.3-8.2-2.7-9.2-6.3c-0.3-0.9-0.5-1.1-1.3-0.7c-1.6,0.7-3.4,1-5.2,0.7c-1.2-0.2-1.6,0.6-2.2,1.3c-2.9,3-6.2,5-10.5,5
		c-4.5,0-7.3-1.9-9-6.2c-3.6,3-7.1,6-11.5,7.8c-0.7,0.3-0.9,1.2-1.1,1.9c-1.5,3.8-2.8,7.6-5.3,10.9c-2.4,3.1-5.4,4.7-9.4,4.4
		c-2.7-0.3-4.9-1.6-5.7-4.3c-0.7-2.4-0.5-4.5,1.5-6.6c2.4-2.6,5.2-4.3,8.3-5.4c3.1-1,5.2-2.7,5.9-6c0-0.2,0-0.4,0.1-0.5
		c-0.1,0.1-0.3,0.2-0.4,0.3c-2.8,1.8-5.6,3.6-9.1,3.8c-4.6,0.2-7.8-2.9-8.4-7.8c-0.4-3.2-0.1-6.5,0.8-9.6c0.4-1.6-0.1-2-1.4-2.6
		c-6.4-2.8-10.9-8.5-10.4-15c0.4-5.1,2.5-9.4,6.8-12.4c0.9-0.6,1.5-0.7,2,0.3c0.1,0.3,0.3,0.5,0.5,0.8c0.7,1,1.9,1.9,2,3
		c0.1,1.2-1.6,1.6-2.4,2.4c-2.2,2.5-3.1,5.2-2.3,8.5c0.9,3.5,3.4,5.5,6.6,6.9c1.3,0.6,1.2-0.7,1.4-1.2c2.6-6.2,5.7-12.1,10.2-17.1
		c3.9-4.3,8.4-7.6,14.4-8.3c7.9-0.9,13.3,5.3,11.4,13c-3,12.3-11.7,18-23.3,20.4c-1.6,0.3-3.4,0.4-5,0.5c-3.3,0.1-3.8,0.4-4.3,3.7
		c-0.2,1.8-0.2,3.7,0,5.5c0.3,2.7,2,3.9,4.6,2.9c5-1.8,9-4.9,11.2-9.9c0.7-1.6,1.3-2.5,3.3-2.7c1.9-0.2,3.8-1.3,6.1-1.7
		c-2.1,5.3-4.2,10.4-6.2,15.5c-0.1,0.2-0.4,0.5,0,0.7C192.6,112.5,192.8,112.3,193,112.2z M179.9,123c-1.9,0.5-3.6,1.7-5.4,2.4
		c-1.5,0.6-1.5,2-1.8,3.1c-0.1,0.6,0.3,1.2,1,1.4c1.3,0.4,2.2-0.2,3.1-1c1.6-1.6,2.5-3.6,3.4-5.6c0-0.2,0-0.3,0-0.5
		C180.1,122.9,180,122.9,179.9,123z M177.1,92.3c2.2,1.4,4.1-0.1,6-0.5c5.5-1.2,9.8-4.2,13.2-8.6c1.7-2.2,2.7-4.6,2.7-7.4
		c-0.1-2.7-1.6-4.1-4.3-3.7c-2.9,0.4-5.1,2-7.1,3.9C182.8,80.6,179.6,86.3,177.1,92.3z M208.3,107c0,0.3-0.1,0.6-0.1,0.9
		c0,1.4,0.1,2.9,1.7,3.5c1.9,0.7,3.2-0.6,4.4-1.8c0.9-0.9,2.1-1.6,1-3.4c-1.3-2.1-0.1-5.1,2.3-5.5c2-0.3,2.4-1.6,2.8-3
		c0.4-1.3,0.8-2.7,0.9-4c0.2-1.9,0.8-4.1-1.4-5.1c-2.1-0.9-3.6,0.8-4.9,2.2c-2.8,3.1-4.2,6.9-5.5,10.7
		C209,103.3,207.8,105,208.3,107z M249.7,92c0-1.4,0-2.9-1.5-3.5c-1.5-0.6-2.7,0.2-3.8,1.1c-0.2,0.1-0.4,0.3-0.5,0.5
		c-4.5,5.1-6.7,11.2-7.5,17.9c-0.2,1.3,0.2,2.7,1.5,3.4c1.4,0.7,2.5,0,3.6-0.8c0.7-0.6,1.3-1.3,1.9-2c0.5-0.6,0.7-1.1,0.2-2
		c-1.5-2.9-0.3-5.4,3-6.2c0.7-0.2,1.1-0.3,1.3-1C248.8,97,249.6,94.6,249.7,92z M264.4,107.2c0,1.2-0.1,2.4,1.1,3.1
		c1.1,0.6,2.2,0.1,3.3-0.5c1.2-0.6,2.1-1.5,2.9-2.5c3.1-4.1,4.3-9.1,6.2-13.7c0.5-1.3-0.2-2.9-1.7-3.7c-1.3-0.6-2.4-0.5-3.6,0.6
		C267.6,95,266,101.1,264.4,107.2z"/>
	<path class="st0" d="M56.5,71.3C52,82.4,47.7,93.2,43.3,104c-0.7,1.8-1.4,3.6-1.6,5.5c-0.2,2.2,0.9,3,3,2.2
		c1.5-0.5,2.6-1.5,3.7-2.7c2.8-3.1,4.8-6.7,6.4-10.6c3.3-8,6.4-16.1,9.8-24.1c2.1-5,5.5-8.6,11.4-8.7c1.5,0,2.7,1.1,4.1,0.5
		c0.3,0.8-0.3,1.3-0.3,1.9c0,2-0.2,3.8-3.3,3.4c-1.6-0.2-3.3,0.7-4.1,2.6c-3.7,8.2-6.8,16.6-10.2,24.9c-2,4.8-4.2,9.4-7.7,13.3
		c-2.7,3.1-6,5.4-10.2,5.7c-4.8,0.3-7.1-0.8-8.5-5.2c-2.5,2.1-5,4.1-8.2,4.9c-6.3,1.6-10.1-1.5-9.9-8c0.2-3.8,1.5-7.3,3-10.8
		c2.5-6.1,5-12.2,7.4-18.3c0.2-0.5,0.3-1,0.6-1.8c-5.3,1.7-10.3,3.3-14.6,6.5c-1.8,1.3-2.4,3.5-2.1,5.8c0.3,2.1,1.5,3.4,3.5,3.8
		c1,0.2,1.2,0.7,1.1,1.6c-0.1,0.5,0,1.1,0,1.6c0,3.7-0.3,3.9-3.9,2.7c-7.5-2.4-9.4-12.2-4.1-18c5-5.4,11.6-7.1,18-9.5
		c2.9-1.1,6-1.9,8-4.6c0.6-0.9,1.8-1.4,2.8-1.9c3.2-1.5,4.4-0.7,5,2.8c0.1,0.8-0.2,0.9-0.7,1.2c-2.4,1.5-3.8,3.8-4.8,6.3
		c-3.7,9.1-7.3,18.2-10.9,27.3c-0.7,1.6-1.3,3.3-1.4,5.1c-0.1,2.2,1,3.1,3,2.1c1.6-0.8,3.1-1.7,4.3-3.2c5.2-6.6,7.3-14.6,10.6-22.1
		c2-4.5,3.7-9.1,5.5-13.6c0.4-1,0.8-1.5,2-1.4C52.3,71.4,54.2,71.3,56.5,71.3z"/>
	<path class="st0" d="M128.7,71.8c-2.6,6.5-5.2,12.8-7.7,19.1c-2.2,5.5-4.4,10.9-6.4,16.5c-0.5,1.3-1.4,3.2,0.2,4.2
		c1.5,0.9,2.8-0.6,4-1.5c0.6-0.4,1.1-1,1.6-1.5c0.2,0.1,0.2,0.1,0.3,0.2c1.6,3.8,1.6,3.9-2,6.1c-1,0.6-2,1.2-3.2,1.4
		c-4.7,0.9-7.6,0.2-8.7-5.5c-1.2,0.2-1.9,1-2.5,1.8c-2.5,3.1-5.7,4.3-9.5,3.9c-2.4-0.2-4-1.8-4.4-4.4c-0.3-1.9-0.8-1.8-2-0.7
		c-4.3,3.6-9.2,5.5-14.9,5.1c-7-0.5-9.6-4.5-9.3-10c0.4-7.7,3.3-14.4,9.1-19.8c2.7-2.5,6-3.6,9.6-3.6c5.5,0,8.6,4.3,7.3,9.7
		c-1.9,7.5-6.8,11-14.9,10.9c-1.4,0-3.5-1.3-3.9,1.6c-0.4,3.2,0.6,5.4,3.1,6.1c2.3,0.7,4.6,0.3,6.8-0.6c5.5-2.4,9.7-6.1,11.9-11.8
		c3.4-8.5,6.9-16.9,10.2-25.4c0.6-1.5,1.2-2.3,3-2c1.1,0.2,2.2,0.1,3.2,0c2.2-0.3,2.1,0.6,1.4,2.2c-4.3,10.4-8.4,20.7-12.6,31.1
		c-0.7,1.6-1.3,3.3-1.2,5.1c0.1,1.9,0.9,2.3,2.4,1.4c4.9-3,8.1-7.5,10.4-12.6c3.7-8.4,6.9-16.9,10.3-25.4c0.6-1.5,1.3-2,2.9-1.9
		C124.9,71.9,126.7,71.8,128.7,71.8z M73.3,99.4c4.9,0.7,7.3-0.7,9.3-5.2c0.6-1.4,1.9-3.1,0.4-4.4c-1.3-1.3-2.8,0.2-4.3,0.6
		c-0.6,0.2-1.1,0.7-1.4,1.2C75.9,94,74.3,96.5,73.3,99.4z M90,110.3c0,0-0.1,0.1-0.1,0.1c0.1,0.2,0.2,0.2,0.3,0c0,0,0-0.1-0.1-0.1
		C90.1,110.3,90,110.3,90,110.3z"/>
	<path class="st1" d="M147.4,91.1c1.3-1.2,1.2-2.4,0.5-3.5c-0.7-1.3-2-1.9-3.5-1.9c-2.1,0.1-3.7,1.1-4.6,2.9
		c-1.1,2.1-1.1,4.5,0.5,6.3c1.6,1.7,0.2,2.5-0.4,3.7c-0.8,1.6-1.7,0.7-2.6,0.3c-3.1-1.1-6.5,0.8-7.7,4.1c-1.3,3.7,0.6,7.8,4.1,8.9
		c4.8,1.5,10.2-2,10.7-7c0.1-1.1-0.2-1.5-1.2-1.2c-1.8,0.5-3.6,1.2-4,3.3c-0.4,1.9-1.9,1.3-2.9,1.1c-1.3-0.3-0.4-1.4-0.3-2.1
		c0.7-3,2.6-4.8,5.4-5.7c2.8-0.9,5.7-1.1,8.6-1.8c1.6-0.4,3.6-0.4,3-3.3c-0.3-1.2,1.9-1.1,2.9-1.6c0.8-0.4,0.9,0.5,1.1,1
		c1.3,3.3,0.4,6.3-2.9,7c-3.8,0.8-4.9,2.8-6,6.3c-2.8,9.1-14.2,11.9-20.6,5.5c-3.2-3.2-3.9-7.1-2.7-11.3c1.2-4.3,4.1-7,8.5-7.8
		c1.4-0.2,1.6-0.5,1.5-1.9c-0.8-7,5.2-12.1,12-10.6c4.7,1,7.2,6.3,5.1,10.4c-1,1.9-2.5,3-4.7,3.4c-0.9,0.1-1.7,0-2.5-0.3
		c-1.7-0.6-2.6-1.9-2.6-3.7c0-1.2,0.6-2.3,1.8-2.7C145.7,88.5,146.8,89.4,147.4,91.1z"/>
</g>
</svg>
